<svg width="" height="" viewBox="0 0 11 18" fill="none" xmlns="http://www.w3.org/2000/svg">
    <path d="M10.1999 14.8799H9.3999V15.6799H10.1999V14.8799Z" fill="#464670"/>
    <path d="M10.1999 14.0801H9.3999V14.8801H10.1999V14.0801Z" fill="#464670"/>
    <path d="M10.1999 13.3201H9.3999V14.1201H10.1999V13.3201Z" fill="#464670"/>
    <path d="M10.1999 12.5198H9.3999V13.3198H10.1999V12.5198Z" fill="#464670"/>
    <path d="M10.1999 11.72H9.3999V12.52H10.1999V11.72Z" fill="#464670"/>
    <path d="M10.1999 10.96H9.3999V11.76H10.1999V10.96Z" fill="#464670"/>
    <path d="M10.1999 10.1602H9.3999V10.9602H10.1999V10.1602Z" fill="#464670"/>
    <path d="M10.1999 9.40015H9.3999V10.2001H10.1999V9.40015Z" fill="#464670"/>
    <path d="M10.1999 8.59985H9.3999V9.39985H10.1999V8.59985Z" fill="#464670"/>
    <path d="M10.1999 7.83984H9.3999V8.63984H10.1999V7.83984Z" fill="#464670"/>
    <path d="M10.1999 7.04004H9.3999V7.84004H10.1999V7.04004Z" fill="#464670"/>
    <path d="M10.1999 6.28003H9.3999V7.08003H10.1999V6.28003Z" fill="#464670"/>
    <path d="M10.1999 5.48022H9.3999V6.28022H10.1999V5.48022Z" fill="#464670"/>
    <path d="M10.1999 4.67993H9.3999V5.47993H10.1999V4.67993Z" fill="#464670"/>
    <path d="M9.43989 15.6399H8.63989V16.4399H9.43989V15.6399Z" fill="#2A1F4E"/>
    <path d="M9.43989 14.8799H8.63989V15.6799H9.43989V14.8799Z" fill="#38E457"/>
    <path d="M9.43989 14.0801H8.63989V14.8801H9.43989V14.0801Z" fill="#38E457"/>
    <path d="M9.43989 13.3201H8.63989V14.1201H9.43989V13.3201Z" fill="#38E457"/>
    <path d="M9.43989 12.5198H8.63989V13.3198H9.43989V12.5198Z" fill="#38E457"/>
    <path d="M9.43989 11.72H8.63989V12.52H9.43989V11.72Z" fill="#38E457"/>
    <path d="M9.43989 10.96H8.63989V11.76H9.43989V10.96Z" fill="#38E457"/>
    <path d="M9.43989 10.1602H8.63989V10.9602H9.43989V10.1602Z" fill="#38E457"/>
    <path d="M9.43989 9.40015H8.63989V10.2001H9.43989V9.40015Z" fill="#38E457"/>
    <path d="M9.43989 8.59985H8.63989V9.39985H9.43989V8.59985Z" fill="#38E457"/>
    <path d="M9.43989 7.83984H8.63989V8.63984H9.43989V7.83984Z" fill="#38E457"/>
    <path d="M9.43989 7.04004H8.63989V7.84004H9.43989V7.04004Z" fill="#38E457"/>
    <path d="M9.43989 6.28003H8.63989V7.08003H9.43989V6.28003Z" fill="#464670"/>
    <path d="M9.43989 5.48022H8.63989V6.28022H9.43989V5.48022Z" fill="#464670"/>
    <path d="M9.43989 4.67993H8.63989V5.47993H9.43989V4.67993Z" fill="#464670"/>
    <path d="M9.43989 3.91992H8.63989V4.71992H9.43989V3.91992Z" fill="#464670"/>
    <path d="M9.43989 1.55981H8.63989V2.35981H9.43989V1.55981Z" fill="#464670"/>
    <path d="M9.43989 0.799805H8.63989V1.5998H9.43989V0.799805Z" fill="#464670"/>
    <path d="M8.64009 16.4402H7.84009V17.2402H8.64009V16.4402Z" fill="#2A1F4E"/>
    <path d="M8.64009 15.6399H7.84009V16.4399H8.64009V15.6399Z" fill="#2A1F4E"/>
    <path d="M8.64009 14.8799H7.84009V15.6799H8.64009V14.8799Z" fill="#38E457"/>
    <path d="M8.64009 14.0801H7.84009V14.8801H8.64009V14.0801Z" fill="#38E457"/>
    <path d="M8.64009 13.3201H7.84009V14.1201H8.64009V13.3201Z" fill="#38E457"/>
    <path d="M8.64009 12.5198H7.84009V13.3198H8.64009V12.5198Z" fill="#38E457"/>
    <path d="M8.64009 11.72H7.84009V12.52H8.64009V11.72Z" fill="#38E457"/>
    <path d="M8.64009 10.96H7.84009V11.76H8.64009V10.96Z" fill="#38E457"/>
    <path d="M8.64009 10.1602H7.84009V10.9602H8.64009V10.1602Z" fill="#38E457"/>
    <path d="M8.64009 9.40015H7.84009V10.2001H8.64009V9.40015Z" fill="#38E457"/>
    <path d="M8.64009 8.59985H7.84009V9.39985H8.64009V8.59985Z" fill="#38E457"/>
    <path d="M8.64009 7.83984H7.84009V8.63984H8.64009V7.83984Z" fill="#38E457"/>
    <path d="M8.64009 7.04004H7.84009V7.84004H8.64009V7.04004Z" fill="#38E457"/>
    <path d="M8.64009 6.28003H7.84009V7.08003H8.64009V6.28003Z" fill="#38E457"/>
    <path d="M8.64009 5.48022H7.84009V6.28022H8.64009V5.48022Z" fill="#38E457"/>
    <path d="M8.64009 4.67993H7.84009V5.47993H8.64009V4.67993Z" fill="#38E457"/>
    <path d="M8.64009 3.91992H7.84009V4.71992H8.64009V3.91992Z" fill="#464670"/>
    <path d="M8.64009 3.12012H7.84009V3.92012H8.64009V3.12012Z" fill="#464670"/>
    <path d="M8.64009 2.36011H7.84009V3.16011H8.64009V2.36011Z" fill="#464670"/>
    <path d="M8.64009 1.55981H7.84009V2.35981H8.64009V1.55981Z" fill="#464670"/>
    <path d="M8.64009 0.799805H7.84009V1.5998H8.64009V0.799805Z" fill="#464670"/>
    <path d="M8.64009 0H7.84009V0.8H8.64009V0Z" fill="#464670"/>
    <path d="M7.84004 16.4402H7.04004V17.2402H7.84004V16.4402Z" fill="#2A1F4E"/>
    <path d="M7.84004 15.6399H7.04004V16.4399H7.84004V15.6399Z" fill="#2A1F4E"/>
    <path d="M7.84004 14.8799H7.04004V15.6799H7.84004V14.8799Z" fill="#38E457"/>
    <path d="M7.84004 13.3201H7.04004V14.1201H7.84004V13.3201Z" fill="#38E457"/>
    <path d="M7.84004 12.5198H7.04004V13.3198H7.84004V12.5198Z" fill="#38E457"/>
    <path d="M7.84004 10.96H7.04004V11.76H7.84004V10.96Z" fill="#38E457"/>
    <path d="M7.84004 10.1602H7.04004V10.9602H7.84004V10.1602Z" fill="#38E457"/>
    <path d="M7.84004 8.59985H7.04004V9.39985H7.84004V8.59985Z" fill="#38E457"/>
    <path d="M7.84004 7.83984H7.04004V8.63984H7.84004V7.83984Z" fill="#38E457"/>
    <path d="M7.84004 6.28003H7.04004V7.08003H7.84004V6.28003Z" fill="#38E457"/>
    <path d="M7.84004 5.48022H7.04004V6.28022H7.84004V5.48022Z" fill="#38E457"/>
    <path d="M7.84004 4.67993H7.04004V5.47993H7.84004V4.67993Z" fill="#38E457"/>
    <path d="M7.84004 3.91992H7.04004V4.71992H7.84004V3.91992Z" fill="#38E457"/>
    <path d="M7.84004 3.12012H7.04004V3.92012H7.84004V3.12012Z" fill="#464670"/>
    <path d="M7.84004 2.36011H7.04004V3.16011H7.84004V2.36011Z" fill="#2A1F4E"/>
    <path d="M7.84004 1.55981H7.04004V2.35981H7.84004V1.55981Z" fill="#2A1F4E"/>
    <path d="M7.84004 0.799805H7.04004V1.5998H7.84004V0.799805Z" fill="#2A1F4E"/>
    <path d="M7.84004 0H7.04004V0.8H7.84004V0Z" fill="#464670"/>
    <path d="M7.08003 16.4402H6.28003V17.2402H7.08003V16.4402Z" fill="#2A1F4E"/>
    <path d="M7.08003 15.6399H6.28003V16.4399H7.08003V15.6399Z" fill="#2A1F4E"/>
    <path d="M7.08003 14.8799H6.28003V15.6799H7.08003V14.8799Z" fill="#38E457"/>
    <path d="M7.08003 13.3201H6.28003V14.1201H7.08003V13.3201Z" fill="#38E457"/>
    <path d="M7.08003 12.5198H6.28003V13.3198H7.08003V12.5198Z" fill="#38E457"/>
    <path d="M7.08003 10.96H6.28003V11.76H7.08003V10.96Z" fill="#38E457"/>
    <path d="M7.08003 10.1602H6.28003V10.9602H7.08003V10.1602Z" fill="#38E457"/>
    <path d="M7.08003 8.59985H6.28003V9.39985H7.08003V8.59985Z" fill="#38E457"/>
    <path d="M7.08003 7.83984H6.28003V8.63984H7.08003V7.83984Z" fill="#38E457"/>
    <path d="M7.08003 6.28003H6.28003V7.08003H7.08003V6.28003Z" fill="#38E457"/>
    <path d="M7.08003 5.48022H6.28003V6.28022H7.08003V5.48022Z" fill="#38E457"/>
    <path d="M7.08003 4.67993H6.28003V5.47993H7.08003V4.67993Z" fill="#38E457"/>
    <path d="M7.08003 3.91992H6.28003V4.71992H7.08003V3.91992Z" fill="#38E457"/>
    <path d="M7.08003 3.12012H6.28003V3.92012H7.08003V3.12012Z" fill="#38E457"/>
    <path d="M7.08003 2.36011H6.28003V3.16011H7.08003V2.36011Z" fill="#2A1F4E"/>
    <path d="M7.08003 1.55981H6.28003V2.35981H7.08003V1.55981Z" fill="#59598E"/>
    <path d="M7.08003 0.799805H6.28003V1.5998H7.08003V0.799805Z" fill="#59598E"/>
    <path d="M7.08003 0H6.28003V0.8H7.08003V0Z" fill="#464670"/>
    <path d="M6.27998 16.4402H5.47998V17.2402H6.27998V16.4402Z" fill="#2A1F4E"/>
    <path d="M6.27998 15.6399H5.47998V16.4399H6.27998V15.6399Z" fill="#2A1F4E"/>
    <path d="M6.27998 14.8799H5.47998V15.6799H6.27998V14.8799Z" fill="#38E457"/>
    <path d="M6.27998 14.0801H5.47998V14.8801H6.27998V14.0801Z" fill="#38E457"/>
    <path d="M6.27998 13.3201H5.47998V14.1201H6.27998V13.3201Z" fill="#38E457"/>
    <path d="M6.27998 12.5198H5.47998V13.3198H6.27998V12.5198Z" fill="#38E457"/>
    <path d="M6.27998 11.72H5.47998V12.52H6.27998V11.72Z" fill="#38E457"/>
    <path d="M6.27998 10.96H5.47998V11.76H6.27998V10.96Z" fill="#38E457"/>
    <path d="M6.27998 10.1602H5.47998V10.9602H6.27998V10.1602Z" fill="#38E457"/>
    <path d="M6.27998 9.40015H5.47998V10.2001H6.27998V9.40015Z" fill="#59598E"/>
    <path d="M6.27998 8.59985H5.47998V9.39985H6.27998V8.59985Z" fill="#38E457"/>
    <path d="M6.27998 7.83984H5.47998V8.63984H6.27998V7.83984Z" fill="#38E457"/>
    <path d="M6.27998 7.04004H5.47998V7.84004H6.27998V7.04004Z" fill="#59598E"/>
    <path d="M6.27998 6.28003H5.47998V7.08003H6.27998V6.28003Z" fill="#38E457"/>
    <path d="M6.27998 5.48022H5.47998V6.28022H6.27998V5.48022Z" fill="#38E457"/>
    <path d="M6.27998 4.67993H5.47998V5.47993H6.27998V4.67993Z" fill="#2A1F4E"/>
    <path d="M6.27998 3.91992H5.47998V4.71992H6.27998V3.91992Z" fill="#38E457"/>
    <path d="M6.27998 3.12012H5.47998V3.92012H6.27998V3.12012Z" fill="#38E457"/>
    <path d="M6.27998 2.36011H5.47998V3.16011H6.27998V2.36011Z" fill="#2A1F4E"/>
    <path d="M6.27998 1.55981H5.47998V2.35981H6.27998V1.55981Z" fill="#2A1F4E"/>
    <path d="M6.27998 0.799805H5.47998V1.5998H6.27998V0.799805Z" fill="#2A1F4E"/>
    <path d="M6.27998 0H5.47998V0.8H6.27998V0Z" fill="#2A1F4E"/>
    <path d="M5.51997 16.4402H4.71997V17.2402H5.51997V16.4402Z" fill="#2A1F4E"/>
    <path d="M5.51997 15.6399H4.71997V16.4399H5.51997V15.6399Z" fill="#2A1F4E"/>
    <path d="M5.51997 14.8799H4.71997V15.6799H5.51997V14.8799Z" fill="#38E457"/>
    <path d="M5.51997 14.0801H4.71997V14.8801H5.51997V14.0801Z" fill="#38E457"/>
    <path d="M5.51997 13.3201H4.71997V14.1201H5.51997V13.3201Z" fill="#38E457"/>
    <path d="M5.51997 12.5198H4.71997V13.3198H5.51997V12.5198Z" fill="#38E457"/>
    <path d="M5.51997 11.72H4.71997V12.52H5.51997V11.72Z" fill="#38E457"/>
    <path d="M5.51997 10.96H4.71997V11.76H5.51997V10.96Z" fill="#38E457"/>
    <path d="M5.51997 10.1602H4.71997V10.9602H5.51997V10.1602Z" fill="#38E457"/>
    <path d="M5.51997 9.40015H4.71997V10.2001H5.51997V9.40015Z" fill="#59598E"/>
    <path d="M5.51997 8.59985H4.71997V9.39985H5.51997V8.59985Z" fill="#59598E"/>
    <path d="M5.51997 7.83984H4.71997V8.63984H5.51997V7.83984Z" fill="#38E457"/>
    <path d="M5.51997 6.28003H4.71997V7.08003H5.51997V6.28003Z" fill="#38E457"/>
    <path d="M5.51997 5.48022H4.71997V6.28022H5.51997V5.48022Z" fill="#38E457"/>
    <path d="M5.51997 4.67993H4.71997V5.47993H5.51997V4.67993Z" fill="#2A1F4E"/>
    <path d="M5.51997 3.91992H4.71997V4.71992H5.51997V3.91992Z" fill="#38E457"/>
    <path d="M5.51997 3.12012H4.71997V3.92012H5.51997V3.12012Z" fill="#38E457"/>
    <path d="M5.51997 2.36011H4.71997V3.16011H5.51997V2.36011Z" fill="#2A1F4E"/>
    <path d="M5.51997 1.55981H4.71997V2.35981H5.51997V1.55981Z" fill="#59598E"/>
    <path d="M5.51997 0.799805H4.71997V1.5998H5.51997V0.799805Z" fill="#59598E"/>
    <path d="M5.51997 0H4.71997V0.8H5.51997V0Z" fill="#2A1F4E"/>
    <path d="M4.71992 16.4402H3.91992V17.2402H4.71992V16.4402Z" fill="#2A1F4E"/>
    <path d="M4.71992 15.6399H3.91992V16.4399H4.71992V15.6399Z" fill="#2A1F4E"/>
    <path d="M4.71992 14.8799H3.91992V15.6799H4.71992V14.8799Z" fill="#38E457"/>
    <path d="M4.71992 14.0801H3.91992V14.8801H4.71992V14.0801Z" fill="#38E457"/>
    <path d="M4.71992 13.3201H3.91992V14.1201H4.71992V13.3201Z" fill="#38E457"/>
    <path d="M4.71992 12.5198H3.91992V13.3198H4.71992V12.5198Z" fill="#38E457"/>
    <path d="M4.71992 11.72H3.91992V12.52H4.71992V11.72Z" fill="#38E457"/>
    <path d="M4.71992 10.96H3.91992V11.76H4.71992V10.96Z" fill="#38E457"/>
    <path d="M4.71992 10.1602H3.91992V10.9602H4.71992V10.1602Z" fill="#38E457"/>
    <path d="M4.71992 9.40015H3.91992V10.2001H4.71992V9.40015Z" fill="#38E457"/>
    <path d="M4.71992 8.59985H3.91992V9.39985H4.71992V8.59985Z" fill="#38E457"/>
    <path d="M4.71992 7.83984H3.91992V8.63984H4.71992V7.83984Z" fill="#38E457"/>
    <path d="M4.71992 7.04004H3.91992V7.84004H4.71992V7.04004Z" fill="#38E457"/>
    <path d="M4.71992 6.28003H3.91992V7.08003H4.71992V6.28003Z" fill="#38E457"/>
    <path d="M4.71992 5.48022H3.91992V6.28022H4.71992V5.48022Z" fill="#38E457"/>
    <path d="M4.71992 4.67993H3.91992V5.47993H4.71992V4.67993Z" fill="#2A1F4E"/>
    <path d="M4.71992 3.91992H3.91992V4.71992H4.71992V3.91992Z" fill="#38E457"/>
    <path d="M4.71992 3.12012H3.91992V3.92012H4.71992V3.12012Z" fill="#38E457"/>
    <path d="M4.71992 2.36011H3.91992V3.16011H4.71992V2.36011Z" fill="#2A1F4E"/>
    <path d="M4.71992 1.55981H3.91992V2.35981H4.71992V1.55981Z" fill="#2A1F4E"/>
    <path d="M4.71992 0.799805H3.91992V1.5998H4.71992V0.799805Z" fill="#2A1F4E"/>
    <path d="M4.71992 0H3.91992V0.8H4.71992V0Z" fill="#2A1F4E"/>
    <path d="M3.92012 16.4402H3.12012V17.2402H3.92012V16.4402Z" fill="#2A1F4E"/>
    <path d="M3.92012 15.6399H3.12012V16.4399H3.92012V15.6399Z" fill="#2A1F4E"/>
    <path d="M3.92012 14.8799H3.12012V15.6799H3.92012V14.8799Z" fill="#38E457"/>
    <path d="M3.92012 14.0801H3.12012V14.8801H3.92012V14.0801Z" fill="#38E457"/>
    <path d="M3.92012 13.3201H3.12012V14.1201H3.92012V13.3201Z" fill="#38E457"/>
    <path d="M3.92012 12.5198H3.12012V13.3198H3.92012V12.5198Z" fill="#38E457"/>
    <path d="M3.92012 11.72H3.12012V12.52H3.92012V11.72Z" fill="#38E457"/>
    <path d="M3.92012 10.96H3.12012V11.76H3.92012V10.96Z" fill="#38E457"/>
    <path d="M3.92012 10.1602H3.12012V10.9602H3.92012V10.1602Z" fill="#38E457"/>
    <path d="M3.92012 9.40015H3.12012V10.2001H3.92012V9.40015Z" fill="#38E457"/>
    <path d="M3.92012 8.59985H3.12012V9.39985H3.92012V8.59985Z" fill="#38E457"/>
    <path d="M3.92012 7.83984H3.12012V8.63984H3.92012V7.83984Z" fill="#38E457"/>
    <path d="M3.92012 7.04004H3.12012V7.84004H3.92012V7.04004Z" fill="#38E457"/>
    <path d="M3.92012 6.28003H3.12012V7.08003H3.92012V6.28003Z" fill="#38E457"/>
    <path d="M3.92012 5.48022H3.12012V6.28022H3.92012V5.48022Z" fill="#38E457"/>
    <path d="M3.92012 4.67993H3.12012V5.47993H3.92012V4.67993Z" fill="#2A1F4E"/>
    <path d="M3.92012 3.91992H3.12012V4.71992H3.92012V3.91992Z" fill="#38E457"/>
    <path d="M3.92012 3.12012H3.12012V3.92012H3.92012V3.12012Z" fill="#38E457"/>
    <path d="M3.92012 2.36011H3.12012V3.16011H3.92012V2.36011Z" fill="#2A1F4E"/>
    <path d="M3.92012 1.55981H3.12012V2.35981H3.92012V1.55981Z" fill="#59598E"/>
    <path d="M3.92012 0.799805H3.12012V1.5998H3.92012V0.799805Z" fill="#59598E"/>
    <path d="M3.92012 0H3.12012V0.8H3.92012V0Z" fill="#2A1F4E"/>
    <path d="M7.07979 17.2002H6.27979H5.47979H4.67979H3.87979H3.07979H2.27979V18.0002H3.07979H3.87979H4.67979H5.47979H6.27979H7.07979H7.87979V17.2002H7.07979Z"
          fill="#464670"/>
    <path d="M3.15986 16.4402H2.35986V17.2402H3.15986V16.4402Z" fill="#2A1F4E"/>
    <path d="M3.15986 15.6399H2.35986V16.4399H3.15986V15.6399Z" fill="#2A1F4E"/>
    <path d="M3.15986 14.8799H2.35986V15.6799H3.15986V14.8799Z" fill="#2A1F4E"/>
    <path d="M3.15986 14.0801H2.35986V14.8801H3.15986V14.0801Z" fill="#38E457"/>
    <path d="M3.15986 13.3201H2.35986V14.1201H3.15986V13.3201Z" fill="#38E457"/>
    <path d="M3.15986 12.5198H2.35986V13.3198H3.15986V12.5198Z" fill="#38E457"/>
    <path d="M3.15986 11.72H2.35986V12.52H3.15986V11.72Z" fill="#38E457"/>
    <path d="M3.15986 10.96H2.35986V11.76H3.15986V10.96Z" fill="#38E457"/>
    <path d="M3.15986 10.1602H2.35986V10.9602H3.15986V10.1602Z" fill="#38E457"/>
    <path d="M3.15986 9.40015H2.35986V10.2001H3.15986V9.40015Z" fill="#38E457"/>
    <path d="M7.08003 7.04004H6.28003V7.84004H7.08003H7.88003V7.04004H7.08003Z" fill="#38E457"/>
    <path d="M6.28003 14.0801V14.8801H7.08003H7.88003V14.0801H7.08003H6.28003Z" fill="#38E457"/>
    <path d="M6.28003 11.72V12.52H7.08003H7.88003V11.72H7.08003H6.28003Z" fill="#38E457"/>
    <path d="M6.28003 9.40015V10.2001H7.08003H7.88003V9.40015H7.08003H6.28003Z" fill="#38E457"/>
    <path d="M5.51997 7.04004H4.71997V7.84004H5.51997V7.04004Z" fill="#38E457"/>
    <path d="M3.15986 8.59985H2.35986V9.39985H3.15986V8.59985Z" fill="#38E457"/>
    <path d="M3.15986 7.83984H2.35986V8.63984H3.15986V7.83984Z" fill="#38E457"/>
    <path d="M3.15986 7.04004H2.35986V7.84004H3.15986V7.04004Z" fill="#38E457"/>
    <path d="M3.15986 6.28003H2.35986V7.08003H3.15986V6.28003Z" fill="#38E457"/>
    <path d="M3.15986 5.48022H2.35986V6.28022H3.15986V5.48022Z" fill="#2A1F4E"/>
    <path d="M3.15986 4.67993H2.35986V5.47993H3.15986V4.67993Z" fill="#2A1F4E"/>
    <path d="M3.15986 3.91992H2.35986V4.71992H3.15986V3.91992Z" fill="#38E457"/>
    <path d="M3.15986 3.12012H2.35986V3.92012H3.15986V3.12012Z" fill="#2A1F4E"/>
    <path d="M3.15986 2.36011H2.35986V3.16011H3.15986V2.36011Z" fill="#2A1F4E"/>
    <path d="M3.15986 1.55981H2.35986V2.35981H3.15986V1.55981Z" fill="#2A1F4E"/>
    <path d="M3.15986 0.799805H2.35986V1.5998H3.15986V0.799805Z" fill="#2A1F4E"/>
    <path d="M3.15986 0H2.35986V0.8H3.15986V0Z" fill="#2A1F4E"/>
    <path d="M2.36006 16.4402H1.56006V17.2402H2.36006V16.4402Z" fill="#464670"/>
    <path d="M2.36006 15.6399H1.56006V16.4399H2.36006V15.6399Z" fill="#2A1F4E"/>
    <path d="M2.36006 14.8799H1.56006V15.6799H2.36006V14.8799Z" fill="#2A1F4E"/>
    <path d="M2.36006 14.0801H1.56006V14.8801H2.36006V14.0801Z" fill="#2A1F4E"/>
    <path d="M2.36006 13.3201H1.56006V14.1201H2.36006V13.3201Z" fill="#2A1F4E"/>
    <path d="M2.36006 12.5198H1.56006V13.3198H2.36006V12.5198Z" fill="#2A1F4E"/>
    <path d="M2.36006 11.72H1.56006V12.52H2.36006V11.72Z" fill="#2A1F4E"/>
    <path d="M2.36006 10.96H1.56006V11.76H2.36006V10.96Z" fill="#2A1F4E"/>
    <path d="M2.36006 10.1602H1.56006V10.9602H2.36006V10.1602Z" fill="#2A1F4E"/>
    <path d="M2.36006 9.40015H1.56006V10.2001H2.36006V9.40015Z" fill="#2A1F4E"/>
    <path d="M2.36006 8.59985H1.56006V9.39985H2.36006V8.59985Z" fill="#2A1F4E"/>
    <path d="M2.36006 7.83984H1.56006V8.63984H2.36006V7.83984Z" fill="#2A1F4E"/>
    <path d="M2.36006 7.04004H1.56006V7.84004H2.36006V7.04004Z" fill="#2A1F4E"/>
    <path d="M2.36006 6.28003H1.56006V7.08003H2.36006V6.28003Z" fill="#2A1F4E"/>
    <path d="M2.36006 5.48022H1.56006V6.28022H2.36006V5.48022Z" fill="#2A1F4E"/>
    <path d="M2.36006 4.67993H1.56006V5.47993H2.36006V4.67993Z" fill="#2A1F4E"/>
    <path d="M2.36006 3.91992H1.56006V4.71992H2.36006V3.91992Z" fill="#2A1F4E"/>
    <path d="M2.39985 3.15991H1.59985V3.95991H2.39985V3.15991Z" fill="#464670"/>
    <path d="M2.39985 2.36011H1.59985V3.16011H2.39985V2.36011Z" fill="#464670"/>
    <path d="M2.36006 1.55981H1.56006V2.35981H2.36006V1.55981Z" fill="#2A1F4E"/>
    <path d="M2.36006 0.799805H1.56006V1.5998H2.36006V0.799805Z" fill="#2A1F4E"/>
    <path d="M1.56001 15.6399H0.76001V16.4399H1.56001V15.6399Z" fill="#464670"/>
    <path d="M1.56001 14.8799H0.76001V15.6799H1.56001V14.8799Z" fill="#2A1F4E"/>
    <path d="M1.56001 14.0801H0.76001V14.8801H1.56001V14.0801Z" fill="#2A1F4E"/>
    <path d="M1.56001 13.3201H0.76001V14.1201H1.56001V13.3201Z" fill="#2A1F4E"/>
    <path d="M1.56001 12.5198H0.76001V13.3198H1.56001V12.5198Z" fill="#2A1F4E"/>
    <path d="M1.56001 11.72H0.76001V12.52H1.56001V11.72Z" fill="#2A1F4E"/>
    <path d="M1.56001 10.96H0.76001V11.76H1.56001V10.96Z" fill="#2A1F4E"/>
    <path d="M1.56001 10.1602H0.76001V10.9602H1.56001V10.1602Z" fill="#2A1F4E"/>
    <path d="M1.56001 9.40015H0.76001V10.2001H1.56001V9.40015Z" fill="#2A1F4E"/>
    <path d="M1.56001 8.59985H0.76001V9.39985H1.56001V8.59985Z" fill="#2A1F4E"/>
    <path d="M1.56001 7.83984H0.76001V8.63984H1.56001V7.83984Z" fill="#2A1F4E"/>
    <path d="M1.56001 7.04004H0.76001V7.84004H1.56001V7.04004Z" fill="#2A1F4E"/>
    <path d="M1.56001 6.28003H0.76001V7.08003H1.56001V6.28003Z" fill="#2A1F4E"/>
    <path d="M1.56001 5.48022H0.76001V6.28022H1.56001V5.48022Z" fill="#2A1F4E"/>
    <path d="M1.56001 4.67993H0.76001V5.47993H1.56001V4.67993Z" fill="#2A1F4E"/>
    <path d="M1.60005 3.95972H0.800049V4.75972H1.60005V3.95972Z" fill="#464670"/>
    <path d="M0 4.71973V5.51973V6.31973V7.11973V7.91973V8.71973V9.51973V10.3197V11.1197V11.9197V12.7197V13.5197V14.3197V15.1197V15.9197H0.8V15.1197V14.3197V13.5197V12.7197V11.9197V11.1197V10.3197V9.51973V8.71973V7.91973V7.11973V6.31973V5.51973V4.71973H0Z"
          fill="#464670"/>
    <path d="M7.84019 8.96021H7.56018V9.20021H7.84019V8.96021Z" fill="#2A1F4E"/>
    <path d="M7.55991 9.19983H7.27991V9.47983H7.55991V9.19983Z" fill="#2A1F4E"/>
    <path d="M7.55991 8.96021H7.27991V9.20021H7.55991V8.96021Z" fill="#2A1F4E"/>
    <path d="M7.27975 9.47974H6.99976V9.75974H7.27975V9.47974Z" fill="#2A1F4E"/>
    <path d="M7.27975 9.19983H6.99976V9.47983H7.27975V9.19983Z" fill="#FFBD39"/>
    <path d="M7.27975 8.96021H6.99976V9.20021H7.27975V8.96021Z" fill="#2A1F4E"/>
    <path d="M7.27975 6.84021H6.99976V7.12021H7.27975V6.84021Z" fill="#2A1F4E"/>
    <path d="M7.27975 6.6001H6.99976V6.8801H7.27975V6.6001Z" fill="#2A1F4E"/>
    <path d="M7.00021 9.76001H6.72021V10H7.00021V9.76001Z" fill="#2A1F4E"/>
    <path d="M7.00021 9.47974H6.72021V9.75974H7.00021V9.47974Z" fill="#FFBD39"/>
    <path d="M7.00021 9.19983H6.72021V9.47983H7.00021V9.19983Z" fill="#FFBD39"/>
    <path d="M7.00021 8.96021H6.72021V9.20021H7.00021V8.96021Z" fill="#2A1F4E"/>
    <path d="M7.00021 7.3999H6.72021V7.6799H7.00021V7.3999Z" fill="#2A1F4E"/>
    <path d="M7.00021 7.11963H6.72021V7.39963H7.00021V7.11963Z" fill="#2A1F4E"/>
    <path d="M7.00021 6.84021H6.72021V7.12021H7.00021V6.84021Z" fill="#FFDE38"/>
    <path d="M7.00021 6.6001H6.72021V6.8801H7.00021V6.6001Z" fill="#2A1F4E"/>
    <path d="M6.68002 10.2397H6.40002V10.5197H6.68002V10.2397Z" fill="#2A1F4E"/>
    <path d="M6.68002 10.0001H6.40002V10.2401H6.68002V10.0001Z" fill="#2A1F4E"/>
    <path d="M6.68002 9.76001H6.40002V10H6.68002V9.76001Z" fill="#FFBD39"/>
    <path d="M6.68002 9.47974H6.40002V9.75974H6.68002V9.47974Z" fill="#FFBD39"/>
    <path d="M6.68002 9.19983H6.40002V9.47983H6.68002V9.19983Z" fill="#FFBD39"/>
    <path d="M6.68002 8.96021H6.40002V9.20021H6.68002V8.96021Z" fill="#2A1F4E"/>
    <path d="M6.68002 7.88013H6.40002V8.16013H6.68002V7.88013Z" fill="#2A1F4E"/>
    <path d="M6.68002 7.64001H6.40002V7.92001H6.68002V7.64001Z" fill="#2A1F4E"/>
    <path d="M6.68002 7.3999H6.40002V7.6799H6.68002V7.3999Z" fill="#FFDE38"/>
    <path d="M6.68002 7.11963H6.40002V7.39963H6.68002V7.11963Z" fill="#FFDE38"/>
    <path d="M6.68002 6.84021H6.40002V7.12021H6.68002V6.84021Z" fill="#FFDE38"/>
    <path d="M6.68002 6.6001H6.40002V6.8801H6.68002V6.6001Z" fill="#2A1F4E"/>
    <path d="M6.39999 10.52H6.12V10.8H6.39999V10.52Z" fill="#2A1F4E"/>
    <path d="M6.39999 10.2397H6.12V10.5197H6.39999V10.2397Z" fill="#2A1F4E"/>
    <path d="M6.39999 10.0001H6.12V10.2401H6.39999V10.0001Z" fill="#FFBD39"/>
    <path d="M6.39999 9.76001H6.12V10H6.39999V9.76001Z" fill="#FFBD39"/>
    <path d="M6.39999 9.47974H6.12V9.75974H6.39999V9.47974Z" fill="#FFDE38"/>
    <path d="M6.39999 9.19983H6.12V9.47983H6.39999V9.19983Z" fill="#FFBD39"/>
    <path d="M6.39999 8.96021H6.12V9.20021H6.39999V8.96021Z" fill="#2A1F4E"/>
    <path d="M6.39999 8.15991H6.12V8.43991H6.39999V8.15991Z" fill="#2A1F4E"/>
    <path d="M6.39999 7.88013H6.12V8.16013H6.39999V7.88013Z" fill="#2A1F4E"/>
    <path d="M6.39999 7.64001H6.12V7.92001H6.39999V7.64001Z" fill="#FFDE38"/>
    <path d="M6.39999 7.3999H6.12V7.6799H6.39999V7.3999Z" fill="#FFDE38"/>
    <path d="M6.39999 7.11963H6.12V7.39963H6.39999V7.11963Z" fill="#FFDE38"/>
    <path d="M6.39999 6.84021H6.12V7.12021H6.39999V6.84021Z" fill="#FFDE38"/>
    <path d="M6.39999 6.6001H6.12V6.8801H6.39999V6.6001Z" fill="#2A1F4E"/>
    <path d="M6.12009 10.7999H5.84009V11.0799H6.12009V10.7999Z" fill="#2A1F4E"/>
    <path d="M6.12009 10.52H5.84009V10.8H6.12009V10.52Z" fill="#2A1F4E"/>
    <path d="M6.12009 10.2397H5.84009V10.5197H6.12009V10.2397Z" fill="#FFBD39"/>
    <path d="M6.12009 10.0001H5.84009V10.2401H6.12009V10.0001Z" fill="#FFBD39"/>
    <path d="M6.12009 9.76001H5.84009V10H6.12009V9.76001Z" fill="#FFDE38"/>
    <path d="M6.12009 9.47974H5.84009V9.75974H6.12009V9.47974Z" fill="#FFDE38"/>
    <path d="M6.12009 9.19983H5.84009V9.47983H6.12009V9.19983Z" fill="#FFBD39"/>
    <path d="M6.12009 8.96021H5.84009V9.20021H6.12009V8.96021Z" fill="#2A1F4E"/>
    <path d="M6.12009 8.67993H5.84009V8.95993H6.12009V8.67993Z" fill="#2A1F4E"/>
    <path d="M6.12009 8.43982H5.84009V8.71982H6.12009V8.43982Z" fill="#2A1F4E"/>
    <path d="M6.12009 8.15991H5.84009V8.43991H6.12009V8.15991Z" fill="#FFDE38"/>
    <path d="M6.12009 7.88013H5.84009V8.16013H6.12009V7.88013Z" fill="#FFDE38"/>
    <path d="M6.12009 7.64001H5.84009V7.92001H6.12009V7.64001Z" fill="#FFDE38"/>
    <path d="M6.12009 7.3999H5.84009V7.6799H6.12009V7.3999Z" fill="#FFDE38"/>
    <path d="M6.12009 7.11963H5.84009V7.39963H6.12009V7.11963Z" fill="#FFF0B3"/>
    <path d="M6.12009 6.84021H5.84009V7.12021H6.12009V6.84021Z" fill="#FFDE38"/>
    <path d="M6.12009 6.6001H5.84009V6.8801H6.12009V6.6001Z" fill="#2A1F4E"/>
    <path d="M5.84006 11.0404H5.56006V11.3204H5.84006V11.0404Z" fill="#2A1F4E"/>
    <path d="M5.84006 10.7999H5.56006V11.0799H5.84006V10.7999Z" fill="#FFBD39"/>
    <path d="M5.84006 10.52H5.56006V10.8H5.84006V10.52Z" fill="#FFBD39"/>
    <path d="M5.84006 10.2397H5.56006V10.5197H5.84006V10.2397Z" fill="#FFBD39"/>
    <path d="M5.84006 10.0001H5.56006V10.2401H5.84006V10.0001Z" fill="#FFDE38"/>
    <path d="M5.84006 9.76001H5.56006V10H5.84006V9.76001Z" fill="#FFDE38"/>
    <path d="M5.84006 9.47974H5.56006V9.75974H5.84006V9.47974Z" fill="#FFDE38"/>
    <path d="M5.84006 9.19983H5.56006V9.47983H5.84006V9.19983Z" fill="#FFDE38"/>
    <path d="M5.84006 8.96021H5.56006V9.20021H5.84006V8.96021Z" fill="#FFDE38"/>
    <path d="M5.84006 8.67993H5.56006V8.95993H5.84006V8.67993Z" fill="#FFDE38"/>
    <path d="M5.84006 8.43982H5.56006V8.71982H5.84006V8.43982Z" fill="#FFDE38"/>
    <path d="M5.84006 8.15991H5.56006V8.43991H5.84006V8.15991Z" fill="#FFDE38"/>
    <path d="M5.84006 7.88013H5.56006V8.16013H5.84006V7.88013Z" fill="#FFDE38"/>
    <path d="M5.84006 7.64001H5.56006V7.92001H5.84006V7.64001Z" fill="#FFF0B3"/>
    <path d="M5.84006 7.3999H5.56006V7.6799H5.84006V7.3999Z" fill="#FFF0B3"/>
    <path d="M5.84006 7.11963H5.56006V7.39963H5.84006V7.11963Z" fill="#FFF0B3"/>
    <path d="M5.84006 6.84021H5.56006V7.12021H5.84006V6.84021Z" fill="#ECCD36"/>
    <path d="M5.84006 6.6001H5.56006V6.8801H5.84006V6.6001Z" fill="#2A1F4E"/>
    <path d="M5.52011 11.3198H5.24011V11.5998H5.52011V11.3198Z" fill="#2A1F4E"/>
    <path d="M5.52011 11.0404H5.24011V11.3204H5.52011V11.0404Z" fill="#FFBD39"/>
    <path d="M5.52011 10.7999H5.24011V11.0799H5.52011V10.7999Z" fill="#FFDE38"/>
    <path d="M5.52011 10.52H5.24011V10.8H5.52011V10.52Z" fill="#FFDE38"/>
    <path d="M5.52011 10.2397H5.24011V10.5197H5.52011V10.2397Z" fill="#2A1F4E"/>
    <path d="M5.52011 10.0001H5.24011V10.2401H5.52011V10.0001Z" fill="#2A1F4E"/>
    <path d="M5.52011 9.76001H5.24011V10H5.52011V9.76001Z" fill="#FFDE38"/>
    <path d="M5.52011 9.47974H5.24011V9.75974H5.52011V9.47974Z" fill="#FFF0B3"/>
    <path d="M5.52011 9.19983H5.24011V9.47983H5.52011V9.19983Z" fill="#FFDE38"/>
    <path d="M5.52011 8.96021H5.24011V9.20021H5.52011V8.96021Z" fill="#FFDE38"/>
    <path d="M5.52011 8.67993H5.24011V8.95993H5.52011V8.67993Z" fill="#FFDE38"/>
    <path d="M5.52011 8.43982H5.24011V8.71982H5.52011V8.43982Z" fill="#FFF0B3"/>
    <path d="M5.52011 8.15991H5.24011V8.43991H5.52011V8.15991Z" fill="#FFF0B3"/>
    <path d="M5.52011 7.88013H5.24011V8.16013H5.52011V7.88013Z" fill="#FFF0B3"/>
    <path d="M5.52011 7.64001H5.24011V7.92001H5.52011V7.64001Z" fill="#FFDE38"/>
    <path d="M5.52011 7.3999H5.24011V7.6799H5.52011V7.3999Z" fill="#FFDE38"/>
    <path d="M5.52011 7.11963H5.24011V7.39963H5.52011V7.11963Z" fill="#2A1F4E"/>
    <path d="M5.52011 6.84021H5.24011V7.12021H5.52011V6.84021Z" fill="#2A1F4E"/>
    <path d="M5.52011 6.6001H5.24011V6.8801H5.52011V6.6001Z" fill="#2A1F4E"/>
    <path d="M5.23984 11.5599H4.95984V11.8399H5.23984V11.5599Z" fill="#2A1F4E"/>
    <path d="M5.23984 11.3198H4.95984V11.5998H5.23984V11.3198Z" fill="#FFBD39"/>
    <path d="M5.23984 11.0404H4.95984V11.3204H5.23984V11.0404Z" fill="#FFDE38"/>
    <path d="M5.23984 10.7999H4.95984V11.0799H5.23984V10.7999Z" fill="#2A1F4E"/>
    <path d="M5.23984 10.52H4.95984V10.8H5.23984V10.52Z" fill="#2A1F4E"/>
    <path d="M5.23984 10.0001H4.95984V10.2401H5.23984V10.0001Z" fill="#2A1F4E"/>
    <path d="M5.23984 9.76001H4.95984V10H5.23984V9.76001Z" fill="#FFDE38"/>
    <path d="M5.23984 9.47974H4.95984V9.75974H5.23984V9.47974Z" fill="#FFF0B3"/>
    <path d="M5.23984 9.19983H4.95984V9.47983H5.23984V9.19983Z" fill="#FFDE38"/>
    <path d="M5.23984 8.96021H4.95984V9.20021H5.23984V8.96021Z" fill="#FFDE38"/>
    <path d="M5.23984 8.67993H4.95984V8.95993H5.23984V8.67993Z" fill="#FFF0B3"/>
    <path d="M5.23984 8.43982H4.95984V8.71982H5.23984V8.43982Z" fill="#FFF0B3"/>
    <path d="M5.23984 8.15991H4.95984V8.43991H5.23984V8.15991Z" fill="#FFDE38"/>
    <path d="M5.23984 7.88013H4.95984V8.16013H5.23984V7.88013Z" fill="#251F2A"/>
    <path d="M5.23984 7.64001H4.95984V7.92001H5.23984V7.64001Z" fill="#2A1F4E"/>
    <path d="M5.23984 7.3999H4.95984V7.6799H5.23984V7.3999Z" fill="#2A1F4E"/>
    <path d="M4.95993 11.8402H4.67993V12.1202H4.95993V11.8402Z" fill="#2A1F4E"/>
    <path d="M4.95993 11.5599H4.67993V11.8399H4.95993V11.5599Z" fill="#FFBD39"/>
    <path d="M4.95993 11.3198H4.67993V11.5998H4.95993V11.3198Z" fill="#2A1F4E"/>
    <path d="M4.95993 11.0404H4.67993V11.3204H4.95993V11.0404Z" fill="#2A1F4E"/>
    <path d="M4.95993 10.0001H4.67993V10.2401H4.95993V10.0001Z" fill="#2A1F4E"/>
    <path d="M4.95993 9.76001H4.67993V10H4.95993V9.76001Z" fill="#FFDE38"/>
    <path d="M4.95993 9.47974H4.67993V9.75974H4.95993V9.47974Z" fill="#FFF0B3"/>
    <path d="M4.95993 9.19983H4.67993V9.47983H4.95993V9.19983Z" fill="#FFDE38"/>
    <path d="M4.95993 8.96021H4.67993V9.20021H4.95993V8.96021Z" fill="#FFF0B3"/>
    <path d="M4.95993 8.67993H4.67993V8.95993H4.95993V8.67993Z" fill="#FFDE38"/>
    <path d="M4.95993 8.43982H4.67993V8.71982H4.95993V8.43982Z" fill="#0E0B29"/>
    <path d="M4.95993 8.15991H4.67993V8.43991H4.95993V8.15991Z" fill="#2A1F4E"/>
    <path d="M4.95993 7.88013H4.67993V8.16013H4.95993V7.88013Z" fill="#2A1F4E"/>
    <path d="M4.64011 11.8402H4.36011V12.1202H4.64011V11.8402Z" fill="#2A1F4E"/>
    <path d="M4.64011 11.5599H4.36011V11.8399H4.64011V11.5599Z" fill="#2A1F4E"/>
    <path d="M4.64011 10.0001H4.36011V10.2401H4.64011V10.0001Z" fill="#2A1F4E"/>
    <path d="M4.64011 9.76001H4.36011V10H4.64011V9.76001Z" fill="#FFDE38"/>
    <path d="M4.64011 9.47974H4.36011V9.75974H4.64011V9.47974Z" fill="#FFDE38"/>
    <path d="M4.64011 9.19983H4.36011V9.47983H4.64011V9.19983Z" fill="#FFDE38"/>
    <path d="M4.64011 8.96021H4.36011V9.20021H4.64011V8.96021Z" fill="#2A1F4E"/>
    <path d="M4.64011 8.67993H4.36011V8.95993H4.64011V8.67993Z" fill="#2A1F4E"/>
    <path d="M4.64011 8.43982H4.36011V8.71982H4.64011V8.43982Z" fill="#2A1F4E"/>
    <path d="M4.35995 10.0001H4.07996V10.2401H4.35995V10.0001Z" fill="#2A1F4E"/>
    <path d="M4.35995 9.76001H4.07996V10H4.35995V9.76001Z" fill="#FFDE38"/>
    <path d="M4.35995 9.47974H4.07996V9.75974H4.35995V9.47974Z" fill="#2A1F4E"/>
    <path d="M4.35995 9.19983H4.07996V9.47983H4.35995V9.19983Z" fill="#2A1F4E"/>
    <path d="M4.08017 10.0001H3.80017V10.2401H4.08017V10.0001Z" fill="#2A1F4E"/>
    <path d="M4.08017 9.76001H3.80017V10H4.08017V9.76001Z" fill="#2A1F4E"/>
</svg>
