<svg width="" height="" viewBox="0 0 18 17" fill="none" xmlns="http://www.w3.org/2000/svg">
    <g clip-path="url(#clip0_2237_55643)">
        <path d="M18 14.1815H17.4543V14.7272H18V14.1815Z" fill="#07042D"/>
        <path d="M18 13.6359H17.4543V14.1815H18V13.6359Z" fill="#07042D"/>
        <path d="M18 13.0902H17.4543V13.6359H18V13.0902Z" fill="#07042D"/>
        <path d="M18 12.5446H17.4543V13.0902H18V12.5446Z" fill="#07042D"/>
        <path d="M18 12H17.4543V12.5457H18V12Z" fill="#07042D"/>
        <path d="M17.4543 14.7272H16.9087V15.2728H17.4543V14.7272Z" fill="#07042D"/>
        <path d="M17.4543 14.1815H16.9087V14.7272H17.4543V14.1815Z" fill="#D67A16"/>
        <path d="M17.4543 13.6359H16.9087V14.1815H17.4543V13.6359Z" fill="#FFC217"/>
        <path d="M17.4543 13.0902H16.9087V13.6359H17.4543V13.0902Z" fill="#07042D"/>
        <path d="M17.4543 12.5446H16.9087V13.0902H17.4543V12.5446Z" fill="#D67A16"/>
        <path d="M17.4543 12H16.9087V12.5457H17.4543V12Z" fill="#FCE29E"/>
        <path d="M17.4543 11.4543H16.9087V12H17.4543V11.4543Z" fill="#07042D"/>
        <path d="M16.9087 15.2728H16.363V15.8185H16.9087V15.2728Z" fill="#07042D"/>
        <path d="M16.9087 14.7272H16.363V15.2728H16.9087V14.7272Z" fill="#EC9428"/>
        <path d="M16.9087 14.1815H16.363V14.7272H16.9087V14.1815Z" fill="#FFC217"/>
        <path d="M16.9087 13.6359H16.363V14.1815H16.9087V13.6359Z" fill="#07042D"/>
        <path d="M16.9087 13.0902H16.363V13.6359H16.9087V13.0902Z" fill="#EC9428"/>
        <path d="M16.9087 12.5446H16.363V13.0902H16.9087V12.5446Z" fill="#FFC217"/>
        <path d="M16.9087 12H16.363V12.5457H16.9087V12Z" fill="#FFC217"/>
        <path d="M16.9087 11.4543H16.363V12H16.9087V11.4543Z" fill="#FFFFF4"/>
        <path d="M16.9087 10.9087H16.363V11.4543H16.9087V10.9087Z" fill="#07042D"/>
        <path d="M16.9087 8.72717H16.363V9.27283H16.9087V8.72717Z" fill="#07042D"/>
        <path d="M16.9087 8.18152H16.363V8.72718H16.9087V8.18152Z" fill="#07042D"/>
        <path d="M16.9087 7.63586H16.363V8.18152H16.9087V7.63586Z" fill="#07042D"/>
        <path d="M16.9087 7.09131H16.363V7.63697H16.9087V7.09131Z" fill="#07042D"/>
        <path d="M16.9087 6.54565H16.363V7.09131H16.9087V6.54565Z" fill="#07042D"/>
        <path d="M16.9087 6H16.363V6.54566H16.9087V6Z" fill="#07042D"/>
        <path d="M16.9087 5.45435H16.363V6H16.9087V5.45435Z" fill="#07042D"/>
        <path d="M16.9087 4.90869H16.363V5.45435H16.9087V4.90869Z" fill="#07042D"/>
        <path d="M16.9087 4.36304H16.363V4.90869H16.9087V4.36304Z" fill="#07042D"/>
        <path d="M16.9087 3.81848H16.363V4.36414H16.9087V3.81848Z" fill="#07042D"/>
        <path d="M16.9087 3.27283H16.363V3.81848H16.9087V3.27283Z" fill="#07042D"/>
        <path d="M16.9087 2.72717H16.363V3.27283H16.9087V2.72717Z" fill="#07042D"/>
        <path d="M16.9087 2.18152H16.363V2.72718H16.9087V2.18152Z" fill="#07042D"/>
        <path d="M16.9087 1.63586H16.363V2.18152H16.9087V1.63586Z" fill="#07042D"/>
        <path d="M16.363 15.8174H15.8174V16.363H16.363V15.8174Z" fill="#07042D"/>
        <path d="M16.363 15.2728H15.8174V15.8185H16.363V15.2728Z" fill="#EC9428"/>
        <path d="M16.363 14.7272H15.8174V15.2728H16.363V14.7272Z" fill="#FFC217"/>
        <path d="M16.363 14.1815H15.8174V14.7272H16.363V14.1815Z" fill="#07042D"/>
        <path d="M16.363 13.6359H15.8174V14.1815H16.363V13.6359Z" fill="#EC9428"/>
        <path d="M16.363 13.0902H15.8174V13.6359H16.363V13.0902Z" fill="#FFC217"/>
        <path d="M16.363 12.5446H15.8174V13.0902H16.363V12.5446Z" fill="#FFC217"/>
        <path d="M16.363 12H15.8174V12.5457H16.363V12Z" fill="#FFC217"/>
        <path d="M16.363 11.4543H15.8174V12H16.363V11.4543Z" fill="#FCE29E"/>
        <path d="M16.363 10.9087H15.8174V11.4543H16.363V10.9087Z" fill="#FCE29E"/>
        <path d="M16.363 10.363H15.8174V10.9087H16.363V10.363Z" fill="#07042D"/>
        <path d="M16.363 9.27283H15.8174V9.81848H16.363V9.27283Z" fill="#07042D"/>
        <path d="M16.363 8.72717H15.8174V9.27283H16.363V8.72717Z" fill="#D67A16"/>
        <path d="M16.363 8.18152H15.8174V8.72718H16.363V8.18152Z" fill="#FFC217"/>
        <path d="M16.363 7.63586H15.8174V8.18152H16.363V7.63586Z" fill="#07042D"/>
        <path d="M16.363 7.09131H15.8174V7.63697H16.363V7.09131Z" fill="#D67A16"/>
        <path d="M16.363 6.54565H15.8174V7.09131H16.363V6.54565Z" fill="#FFC217"/>
        <path d="M16.363 6H15.8174V6.54566H16.363V6Z" fill="#07042D"/>
        <path d="M16.363 5.45435H15.8174V6H16.363V5.45435Z" fill="#D67A16"/>
        <path d="M16.363 4.90869H15.8174V5.45435H16.363V4.90869Z" fill="#FFC217"/>
        <path d="M16.363 4.36304H15.8174V4.90869H16.363V4.36304Z" fill="#07042D"/>
        <path d="M16.363 3.81848H15.8174V4.36414H16.363V3.81848Z" fill="#D67A16"/>
        <path d="M16.363 3.27283H15.8174V3.81848H16.363V3.27283Z" fill="#FFC217"/>
        <path d="M16.363 2.72717H15.8174V3.27283H16.363V2.72717Z" fill="#07042D"/>
        <path d="M16.363 2.18152H15.8174V2.72718H16.363V2.18152Z" fill="#D67A16"/>
        <path d="M16.363 1.63586H15.8174V2.18152H16.363V1.63586Z" fill="#FFC217"/>
        <path d="M16.363 1.09131H15.8174V1.63697H16.363V1.09131Z" fill="#07042D"/>
        <path d="M15.8174 15.8174H15.2717V16.363H15.8174V15.8174Z" fill="#07042D"/>
        <path d="M15.8174 15.2728H15.2717V15.8185H15.8174V15.2728Z" fill="#D67A16"/>
        <path d="M15.8174 14.7272H15.2717V15.2728H15.8174V14.7272Z" fill="#FFC217"/>
        <path d="M15.8174 14.1815H15.2717V14.7272H15.8174V14.1815Z" fill="#07042D"/>
        <path d="M15.8174 13.6359H15.2717V14.1815H15.8174V13.6359Z" fill="#D67A16"/>
        <path d="M15.8174 13.0902H15.2717V13.6359H15.8174V13.0902Z" fill="#FFC217"/>
        <path d="M15.8174 12.5446H15.2717V13.0902H15.8174V12.5446Z" fill="#FFC217"/>
        <path d="M15.8174 12H15.2717V12.5457H15.8174V12Z" fill="#FFC217"/>
        <path d="M15.8174 11.4543H15.2717V12H15.8174V11.4543Z" fill="#FFC217"/>
        <path d="M15.8174 10.9087H15.2717V11.4543H15.8174V10.9087Z" fill="#FCE29E"/>
        <path d="M15.8174 10.363H15.2717V10.9087H15.8174V10.363Z" fill="#07042D"/>
        <path d="M15.8174 9.81738H15.2717V10.363H15.8174V9.81738Z" fill="#07042D"/>
        <path d="M15.8174 9.27283H15.2717V9.81848H15.8174V9.27283Z" fill="#D67A16"/>
        <path d="M15.8174 8.72717H15.2717V9.27283H15.8174V8.72717Z" fill="#FFC217"/>
        <path d="M15.8174 8.18152H15.2717V8.72718H15.8174V8.18152Z" fill="#07042D"/>
        <path d="M15.8174 7.63586H15.2717V8.18152H15.8174V7.63586Z" fill="#D67A16"/>
        <path d="M15.8174 7.09131H15.2717V7.63697H15.8174V7.09131Z" fill="#FFC217"/>
        <path d="M15.8174 6.54565H15.2717V7.09131H15.8174V6.54565Z" fill="#07042D"/>
        <path d="M15.8174 6H15.2717V6.54566H15.8174V6Z" fill="#D67A16"/>
        <path d="M15.8174 5.45435H15.2717V6H15.8174V5.45435Z" fill="#FFC217"/>
        <path d="M15.8174 4.90869H15.2717V5.45435H15.8174V4.90869Z" fill="#07042D"/>
        <path d="M15.8174 4.36304H15.2717V4.90869H15.8174V4.36304Z" fill="#D67A16"/>
        <path d="M15.8174 3.81848H15.2717V4.36414H15.8174V3.81848Z" fill="#FFC217"/>
        <path d="M15.8174 3.27283H15.2717V3.81848H15.8174V3.27283Z" fill="#07042D"/>
        <path d="M15.8174 2.72717H15.2717V3.27283H15.8174V2.72717Z" fill="#D67A16"/>
        <path d="M15.8174 2.18152H15.2717V2.72718H15.8174V2.18152Z" fill="#FFC217"/>
        <path d="M15.8174 1.63586H15.2717V2.18152H15.8174V1.63586Z" fill="#FFC217"/>
        <path d="M15.8174 1.09131H15.2717V1.63697H15.8174V1.09131Z" fill="#FCE29E"/>
        <path d="M15.8174 0.545654H15.2717V1.09131H15.8174V0.545654Z" fill="#07042D"/>
        <path d="M15.2728 15.8174H14.7272V16.363H15.2728V15.8174Z" fill="#07042D"/>
        <path d="M15.2728 15.2728H14.7272V15.8185H15.2728V15.2728Z" fill="#D67A16"/>
        <path d="M15.2728 14.7272H14.7272V15.2728H15.2728V14.7272Z" fill="#FFC217"/>
        <path d="M15.2728 14.1815H14.7272V14.7272H15.2728V14.1815Z" fill="#07042D"/>
        <path d="M15.2728 13.6359H14.7272V14.1815H15.2728V13.6359Z" fill="#D67A16"/>
        <path d="M15.2728 13.0902H14.7272V13.6359H15.2728V13.0902Z" fill="#FFC217"/>
        <path d="M15.2728 12.5446H14.7272V13.0902H15.2728V12.5446Z" fill="#FFC217"/>
        <path d="M15.2728 12H14.7272V12.5457H15.2728V12Z" fill="#FFC217"/>
        <path d="M15.2728 11.4543H14.7272V12H15.2728V11.4543Z" fill="#FFC217"/>
        <path d="M15.2728 10.9087H14.7272V11.4543H15.2728V10.9087Z" fill="#FFFFF4"/>
        <path d="M15.2728 10.363H14.7272V10.9087H15.2728V10.363Z" fill="#07042D"/>
        <path d="M15.2728 9.81738H14.7272V10.363H15.2728V9.81738Z" fill="#EC9428"/>
        <path d="M15.2728 9.27283H14.7272V9.81848H15.2728V9.27283Z" fill="#EC9428"/>
        <path d="M15.2728 8.72717H14.7272V9.27283H15.2728V8.72717Z" fill="#07042D"/>
        <path d="M15.2728 8.18152H14.7272V8.72718H15.2728V8.18152Z" fill="#EC9428"/>
        <path d="M15.2728 7.63586H14.7272V8.18152H15.2728V7.63586Z" fill="#EC9428"/>
        <path d="M15.2728 7.09131H14.7272V7.63697H15.2728V7.09131Z" fill="#07042D"/>
        <path d="M15.2728 6.54565H14.7272V7.09131H15.2728V6.54565Z" fill="#EC9428"/>
        <path d="M15.2728 6H14.7272V6.54566H15.2728V6Z" fill="#EC9428"/>
        <path d="M15.2728 5.45435H14.7272V6H15.2728V5.45435Z" fill="#07042D"/>
        <path d="M15.2728 4.90869H14.7272V5.45435H15.2728V4.90869Z" fill="#EC9428"/>
        <path d="M15.2728 4.36304H14.7272V4.90869H15.2728V4.36304Z" fill="#EC9428"/>
        <path d="M15.2728 3.81848H14.7272V4.36414H15.2728V3.81848Z" fill="#07042D"/>
        <path d="M15.2728 3.27283H14.7272V3.81848H15.2728V3.27283Z" fill="#EC9428"/>
        <path d="M15.2728 2.72717H14.7272V3.27283H15.2728V2.72717Z" fill="#EC9428"/>
        <path d="M15.2728 2.18152H14.7272V2.72718H15.2728V2.18152Z" fill="#FFC217"/>
        <path d="M15.2728 1.63586H14.7272V2.18152H15.2728V1.63586Z" fill="#FFC217"/>
        <path d="M15.2728 1.09131H14.7272V1.63697H15.2728V1.09131Z" fill="#FFC217"/>
        <path d="M15.2728 0.545654H14.7272V1.09131H15.2728V0.545654Z" fill="#FFFFF4"/>
        <path d="M15.2728 0H14.7272V0.545658H15.2728V0Z" fill="#07042D"/>
        <path d="M14.7272 15.8174H14.1815V16.363H14.7272V15.8174Z" fill="#07042D"/>
        <path d="M14.7272 15.2728H14.1815V15.8185H14.7272V15.2728Z" fill="#D67A16"/>
        <path d="M14.7272 14.7272H14.1815V15.2728H14.7272V14.7272Z" fill="#FFC217"/>
        <path d="M14.7272 14.1815H14.1815V14.7272H14.7272V14.1815Z" fill="#07042D"/>
        <path d="M14.7272 13.6359H14.1815V14.1815H14.7272V13.6359Z" fill="#D67A16"/>
        <path d="M14.7272 13.0902H14.1815V13.6359H14.7272V13.0902Z" fill="#FFC217"/>
        <path d="M14.7272 12.5446H14.1815V13.0902H14.7272V12.5446Z" fill="#FFC217"/>
        <path d="M14.7272 12H14.1815V12.5457H14.7272V12Z" fill="#FFC217"/>
        <path d="M14.7272 11.4543H14.1815V12H14.7272V11.4543Z" fill="#FFC217"/>
        <path d="M14.7272 10.9087H14.1815V11.4543H14.7272V10.9087Z" fill="#FFFFF4"/>
        <path d="M14.7272 10.363H14.1815V10.9087H14.7272V10.363Z" fill="#07042D"/>
        <path d="M14.7272 9.81738H14.1815V10.363H14.7272V9.81738Z" fill="#D67A16"/>
        <path d="M14.7272 9.27283H14.1815V9.81848H14.7272V9.27283Z" fill="#FFC217"/>
        <path d="M14.7272 8.72717H14.1815V9.27283H14.7272V8.72717Z" fill="#07042D"/>
        <path d="M14.7272 8.18152H14.1815V8.72718H14.7272V8.18152Z" fill="#D67A16"/>
        <path d="M14.7272 7.63586H14.1815V8.18152H14.7272V7.63586Z" fill="#FFC217"/>
        <path d="M14.7272 7.09131H14.1815V7.63697H14.7272V7.09131Z" fill="#07042D"/>
        <path d="M14.7272 6.54565H14.1815V7.09131H14.7272V6.54565Z" fill="#D67A16"/>
        <path d="M14.7272 6H14.1815V6.54566H14.7272V6Z" fill="#FFC217"/>
        <path d="M14.7272 5.45435H14.1815V6H14.7272V5.45435Z" fill="#07042D"/>
        <path d="M14.7272 4.90869H14.1815V5.45435H14.7272V4.90869Z" fill="#D67A16"/>
        <path d="M14.7272 4.36304H14.1815V4.90869H14.7272V4.36304Z" fill="#FFC217"/>
        <path d="M14.7272 3.81848H14.1815V4.36414H14.7272V3.81848Z" fill="#07042D"/>
        <path d="M14.7272 3.27283H14.1815V3.81848H14.7272V3.27283Z" fill="#D67A16"/>
        <path d="M14.7272 2.72717H14.1815V3.27283H14.7272V2.72717Z" fill="#FFC217"/>
        <path d="M14.7272 2.18152H14.1815V2.72718H14.7272V2.18152Z" fill="#FFC217"/>
        <path d="M14.7272 1.63586H14.1815V2.18152H14.7272V1.63586Z" fill="#FFC217"/>
        <path d="M14.7272 1.09131H14.1815V1.63697H14.7272V1.09131Z" fill="#FFC217"/>
        <path d="M14.7272 0.545654H14.1815V1.09131H14.7272V0.545654Z" fill="#FCE29E"/>
        <path d="M14.7272 0H14.1815V0.545658H14.7272V0Z" fill="#07042D"/>
        <path d="M14.1815 15.8174H13.6359V16.363H14.1815V15.8174Z" fill="#07042D"/>
        <path d="M14.1815 15.2728H13.6359V15.8185H14.1815V15.2728Z" fill="#EC9428"/>
        <path d="M14.1815 14.7272H13.6359V15.2728H14.1815V14.7272Z" fill="#FFC217"/>
        <path d="M14.1815 14.1815H13.6359V14.7272H14.1815V14.1815Z" fill="#07042D"/>
        <path d="M14.1815 13.6359H13.6359V14.1815H14.1815V13.6359Z" fill="#EC9428"/>
        <path d="M14.1815 13.0902H13.6359V13.6359H14.1815V13.0902Z" fill="#FFC217"/>
        <path d="M14.1815 12.5446H13.6359V13.0902H14.1815V12.5446Z" fill="#FFC217"/>
        <path d="M14.1815 12H13.6359V12.5457H14.1815V12Z" fill="#FFC217"/>
        <path d="M14.1815 11.4543H13.6359V12H14.1815V11.4543Z" fill="#FCE29E"/>
        <path d="M14.1815 10.9087H13.6359V11.4543H14.1815V10.9087Z" fill="#FFFFF4"/>
        <path d="M14.1815 10.363H13.6359V10.9087H14.1815V10.363Z" fill="#07042D"/>
        <path d="M14.1815 9.81738H13.6359V10.363H14.1815V9.81738Z" fill="#EC9428"/>
        <path d="M14.1815 9.27283H13.6359V9.81848H14.1815V9.27283Z" fill="#FFC217"/>
        <path d="M14.1815 8.72717H13.6359V9.27283H14.1815V8.72717Z" fill="#07042D"/>
        <path d="M14.1815 8.18152H13.6359V8.72718H14.1815V8.18152Z" fill="#EC9428"/>
        <path d="M14.1815 7.63586H13.6359V8.18152H14.1815V7.63586Z" fill="#FFC217"/>
        <path d="M14.1815 7.09131H13.6359V7.63697H14.1815V7.09131Z" fill="#07042D"/>
        <path d="M14.1815 6.54565H13.6359V7.09131H14.1815V6.54565Z" fill="#EC9428"/>
        <path d="M14.1815 6H13.6359V6.54566H14.1815V6Z" fill="#FFC217"/>
        <path d="M14.1815 5.45435H13.6359V6H14.1815V5.45435Z" fill="#07042D"/>
        <path d="M14.1815 4.90869H13.6359V5.45435H14.1815V4.90869Z" fill="#EC9428"/>
        <path d="M14.1815 4.36304H13.6359V4.90869H14.1815V4.36304Z" fill="#FFC217"/>
        <path d="M14.1815 3.81848H13.6359V4.36414H14.1815V3.81848Z" fill="#07042D"/>
        <path d="M14.1815 3.27283H13.6359V3.81848H14.1815V3.27283Z" fill="#EC9428"/>
        <path d="M14.1815 2.72717H13.6359V3.27283H14.1815V2.72717Z" fill="#FFC217"/>
        <path d="M14.1815 2.18152H13.6359V2.72718H14.1815V2.18152Z" fill="#FFC217"/>
        <path d="M14.1815 1.63586H13.6359V2.18152H14.1815V1.63586Z" fill="#FFC217"/>
        <path d="M14.1815 1.09131H13.6359V1.63697H14.1815V1.09131Z" fill="#FFC217"/>
        <path d="M14.1815 0.545654H13.6359V1.09131H14.1815V0.545654Z" fill="#FCE29E"/>
        <path d="M14.1815 0H13.6359V0.545658H14.1815V0Z" fill="#07042D"/>
        <path d="M13.6359 15.2728H13.0902V15.8185H13.6359V15.2728Z" fill="#07042D"/>
        <path d="M13.6359 14.7272H13.0902V15.2728H13.6359V14.7272Z" fill="#D67A16"/>
        <path d="M13.6359 14.1815H13.0902V14.7272H13.6359V14.1815Z" fill="#FFC217"/>
        <path d="M13.6359 13.6359H13.0902V14.1815H13.6359V13.6359Z" fill="#07042D"/>
        <path d="M13.6359 13.0902H13.0902V13.6359H13.6359V13.0902Z" fill="#D67A16"/>
        <path d="M13.6359 12.5446H13.0902V13.0902H13.6359V12.5446Z" fill="#FFC217"/>
        <path d="M13.6359 12H13.0902V12.5457H13.6359V12Z" fill="#07042D"/>
        <path d="M13.6359 11.4543H13.0902V12H13.6359V11.4543Z" fill="#07042D"/>
        <path d="M13.6359 10.9087H13.0902V11.4543H13.6359V10.9087Z" fill="#07042D"/>
        <path d="M13.6359 10.363H13.0902V10.9087H13.6359V10.363Z" fill="#07042D"/>
        <path d="M13.6359 9.81738H13.0902V10.363H13.6359V9.81738Z" fill="#07042D"/>
        <path d="M13.6359 9.27283H13.0902V9.81848H13.6359V9.27283Z" fill="#07042D"/>
        <path d="M13.6359 8.72717H13.0902V9.27283H13.6359V8.72717Z" fill="#07042D"/>
        <path d="M13.6359 8.18152H13.0902V8.72718H13.6359V8.18152Z" fill="#07042D"/>
        <path d="M13.6359 7.63586H13.0902V8.18152H13.6359V7.63586Z" fill="#FFC217"/>
        <path d="M13.6359 7.09131H13.0902V7.63697H13.6359V7.09131Z" fill="#07042D"/>
        <path d="M13.6359 6.54565H13.0902V7.09131H13.6359V6.54565Z" fill="#EC9428"/>
        <path d="M13.6359 6H13.0902V6.54566H13.6359V6Z" fill="#FFC217"/>
        <path d="M13.6359 5.45435H13.0902V6H13.6359V5.45435Z" fill="#07042D"/>
        <path d="M13.6359 4.90869H13.0902V5.45435H13.6359V4.90869Z" fill="#EC9428"/>
        <path d="M13.6359 4.36304H13.0902V4.90869H13.6359V4.36304Z" fill="#FFC217"/>
        <path d="M13.6359 3.81848H13.0902V4.36414H13.6359V3.81848Z" fill="#07042D"/>
        <path d="M13.6359 3.27283H13.0902V3.81848H13.6359V3.27283Z" fill="#EC9428"/>
        <path d="M13.6359 2.72717H13.0902V3.27283H13.6359V2.72717Z" fill="#FFC217"/>
        <path d="M13.6359 2.18152H13.0902V2.72718H13.6359V2.18152Z" fill="#FFC217"/>
        <path d="M13.6359 1.63586H13.0902V2.18152H13.6359V1.63586Z" fill="#FFC217"/>
        <path d="M13.6359 1.09131H13.0902V1.63697H13.6359V1.09131Z" fill="#FFC217"/>
        <path d="M13.6359 0.545654H13.0902V1.09131H13.6359V0.545654Z" fill="#FFFFF4"/>
        <path d="M13.6359 0H13.0902V0.545658H13.6359V0Z" fill="#07042D"/>
        <path d="M13.0902 14.7272H12.5446V15.2728H13.0902V14.7272Z" fill="#07042D"/>
        <path d="M13.0902 14.1815H12.5446V14.7272H13.0902V14.1815Z" fill="#EC9428"/>
        <path d="M13.0902 13.6359H12.5446V14.1815H13.0902V13.6359Z" fill="#FFC217"/>
        <path d="M13.0902 13.0902H12.5446V13.6359H13.0902V13.0902Z" fill="#07042D"/>
        <path d="M13.0902 12.5446H12.5446V13.0902H13.0902V12.5446Z" fill="#07042D"/>
        <path d="M13.0902 12H12.5446V12.5457H13.0902V12Z" fill="#D67A16"/>
        <path d="M13.0902 11.4543H12.5446V12H13.0902V11.4543Z" fill="#FFC217"/>
        <path d="M13.0902 10.9087H12.5446V11.4543H13.0902V10.9087Z" fill="#07042D"/>
        <path d="M13.0902 10.363H12.5446V10.9087H13.0902V10.363Z" fill="#D67A16"/>
        <path d="M13.0902 9.81738H12.5446V10.363H13.0902V9.81738Z" fill="#FFC217"/>
        <path d="M13.0902 9.27283H12.5446V9.81848H13.0902V9.27283Z" fill="#07042D"/>
        <path d="M13.0902 8.72717H12.5446V9.27283H13.0902V8.72717Z" fill="#D67A16"/>
        <path d="M13.0902 8.18152H12.5446V8.72718H13.0902V8.18152Z" fill="#FCE29E"/>
        <path d="M13.0902 7.63586H12.5446V8.18152H13.0902V7.63586Z" fill="#07042D"/>
        <path d="M13.0902 7.09131H12.5446V7.63697H13.0902V7.09131Z" fill="#07042D"/>
        <path d="M13.0902 6.54565H12.5446V7.09131H13.0902V6.54565Z" fill="#D67A16"/>
        <path d="M13.0902 6H12.5446V6.54566H13.0902V6Z" fill="#FFC217"/>
        <path d="M13.0902 5.45435H12.5446V6H13.0902V5.45435Z" fill="#07042D"/>
        <path d="M13.0902 4.90869H12.5446V5.45435H13.0902V4.90869Z" fill="#D67A16"/>
        <path d="M13.0902 4.36304H12.5446V4.90869H13.0902V4.36304Z" fill="#FFC217"/>
        <path d="M13.0902 3.81848H12.5446V4.36414H13.0902V3.81848Z" fill="#07042D"/>
        <path d="M13.0902 3.27283H12.5446V3.81848H13.0902V3.27283Z" fill="#D67A16"/>
        <path d="M13.0902 2.72717H12.5446V3.27283H13.0902V2.72717Z" fill="#FFC217"/>
        <path d="M13.0902 2.18152H12.5446V2.72718H13.0902V2.18152Z" fill="#FFC217"/>
        <path d="M13.0902 1.63586H12.5446V2.18152H13.0902V1.63586Z" fill="#FFC217"/>
        <path d="M13.0902 1.09131H12.5446V1.63697H13.0902V1.09131Z" fill="#FFC217"/>
        <path d="M13.0902 0.545654H12.5446V1.09131H13.0902V0.545654Z" fill="#FCE29E"/>
        <path d="M13.0902 0H12.5446V0.545658H13.0902V0Z" fill="#07042D"/>
        <path d="M12.5457 14.1815H12V14.7272H12.5457V14.1815Z" fill="#07042D"/>
        <path d="M12.5457 13.6359H12V14.1815H12.5457V13.6359Z" fill="#07042D"/>
        <path d="M12.5457 13.0902H12V13.6359H12.5457V13.0902Z" fill="#07042D"/>
        <path d="M12.5457 12.5446H12V13.0902H12.5457V12.5446Z" fill="#EC9428"/>
        <path d="M12.5457 12H12V12.5457H12.5457V12Z" fill="#FFC217"/>
        <path d="M12.5457 11.4543H12V12H12.5457V11.4543Z" fill="#07042D"/>
        <path d="M12.5457 10.9087H12V11.4543H12.5457V10.9087Z" fill="#EC9428"/>
        <path d="M12.5457 10.363H12V10.9087H12.5457V10.363Z" fill="#FFC217"/>
        <path d="M12.5457 9.81738H12V10.363H12.5457V9.81738Z" fill="#07042D"/>
        <path d="M12.5457 9.27283H12V9.81848H12.5457V9.27283Z" fill="#EC9428"/>
        <path d="M12.5457 8.72717H12V9.27283H12.5457V8.72717Z" fill="#FFC217"/>
        <path d="M12.5457 8.18152H12V8.72718H12.5457V8.18152Z" fill="#FFC217"/>
        <path d="M12.5457 7.63586H12V8.18152H12.5457V7.63586Z" fill="#FFFFF4"/>
        <path d="M12.5457 7.09131H12V7.63697H12.5457V7.09131Z" fill="#07042D"/>
        <path d="M12.5457 6.54565H12V7.09131H12.5457V6.54565Z" fill="#EC9428"/>
        <path d="M12.5457 6H12V6.54566H12.5457V6Z" fill="#FFC217"/>
        <path d="M12.5457 5.45435H12V6H12.5457V5.45435Z" fill="#07042D"/>
        <path d="M12.5457 4.90869H12V5.45435H12.5457V4.90869Z" fill="#EC9428"/>
        <path d="M12.5457 4.36304H12V4.90869H12.5457V4.36304Z" fill="#FFC217"/>
        <path d="M12.5457 3.81848H12V4.36414H12.5457V3.81848Z" fill="#07042D"/>
        <path d="M12.5457 3.27283H12V3.81848H12.5457V3.27283Z" fill="#EC9428"/>
        <path d="M12.5457 2.72717H12V3.27283H12.5457V2.72717Z" fill="#FFC217"/>
        <path d="M12.5457 2.18152H12V2.72718H12.5457V2.18152Z" fill="#FFC217"/>
        <path d="M12.5457 1.63586H12V2.18152H12.5457V1.63586Z" fill="#FFC217"/>
        <path d="M12.5457 1.09131H12V1.63697H12.5457V1.09131Z" fill="#FCE29E"/>
        <path d="M12.5457 0.545654H12V1.09131H12.5457V0.545654Z" fill="#FFFFF4"/>
        <path d="M12.5457 0H12V0.545658H12.5457V0Z" fill="#07042D"/>
        <path d="M12 13.6359H11.4543V14.1815H12V13.6359Z" fill="#07042D"/>
        <path d="M12 13.0902H11.4543V13.6359H12V13.0902Z" fill="#D67A16"/>
        <path d="M12 12.5446H11.4543V13.0902H12V12.5446Z" fill="#FFC217"/>
        <path d="M12 12H11.4543V12.5457H12V12Z" fill="#07042D"/>
        <path d="M12 11.4543H11.4543V12H12V11.4543Z" fill="#D67A16"/>
        <path d="M12 10.9087H11.4543V11.4543H12V10.9087Z" fill="#FFC217"/>
        <path d="M12 10.363H11.4543V10.9087H12V10.363Z" fill="#07042D"/>
        <path d="M12 9.81738H11.4543V10.363H12V9.81738Z" fill="#D67A16"/>
        <path d="M12 9.27283H11.4543V9.81848H12V9.27283Z" fill="#FFC217"/>
        <path d="M12 8.72717H11.4543V9.27283H12V8.72717Z" fill="#FFC217"/>
        <path d="M12 8.18152H11.4543V8.72718H12V8.18152Z" fill="#FFC217"/>
        <path d="M12 7.63586H11.4543V8.18152H12V7.63586Z" fill="#FCE29E"/>
        <path d="M12 7.09131H11.4543V7.63697H12V7.09131Z" fill="#FFFFF4"/>
        <path d="M12 6.54565H11.4543V7.09131H12V6.54565Z" fill="#07042D"/>
        <path d="M12 6H11.4543V6.54566H12V6Z" fill="#FFC217"/>
        <path d="M12 5.45435H11.4543V6H12V5.45435Z" fill="#FFC217"/>
        <path d="M12 4.90869H11.4543V5.45435H12V4.90869Z" fill="#07042D"/>
        <path d="M12 4.36304H11.4543V4.90869H12V4.36304Z" fill="#FFC217"/>
        <path d="M12 3.81848H11.4543V4.36414H12V3.81848Z" fill="#FFC217"/>
        <path d="M12 3.27283H11.4543V3.81848H12V3.27283Z" fill="#07042D"/>
        <path d="M12 2.72717H11.4543V3.27283H12V2.72717Z" fill="#FFC217"/>
        <path d="M12 2.18152H11.4543V2.72718H12V2.18152Z" fill="#FFC217"/>
        <path d="M12 1.63586H11.4543V2.18152H12V1.63586Z" fill="#FCE29E"/>
        <path d="M12 1.09131H11.4543V1.63697H12V1.09131Z" fill="#FFFFF4"/>
        <path d="M12 0.545654H11.4543V1.09131H12V0.545654Z" fill="#07042D"/>
        <path d="M11.4543 13.6359H10.9087V14.1815H11.4543V13.6359Z" fill="#07042D"/>
        <path d="M11.4543 13.0902H10.9087V13.6359H11.4543V13.0902Z" fill="#EC9428"/>
        <path d="M11.4543 12.5446H10.9087V13.0902H11.4543V12.5446Z" fill="#FFC217"/>
        <path d="M11.4543 12H10.9087V12.5457H11.4543V12Z" fill="#07042D"/>
        <path d="M11.4543 11.4543H10.9087V12H11.4543V11.4543Z" fill="#EC9428"/>
        <path d="M11.4543 10.9087H10.9087V11.4543H11.4543V10.9087Z" fill="#FFC217"/>
        <path d="M11.4543 10.363H10.9087V10.9087H11.4543V10.363Z" fill="#07042D"/>
        <path d="M11.4543 9.81738H10.9087V10.363H11.4543V9.81738Z" fill="#EC9428"/>
        <path d="M11.4543 9.27283H10.9087V9.81848H11.4543V9.27283Z" fill="#FFC217"/>
        <path d="M11.4543 8.72717H10.9087V9.27283H11.4543V8.72717Z" fill="#FFC217"/>
        <path d="M11.4543 8.18152H10.9087V8.72718H11.4543V8.18152Z" fill="#FFC217"/>
        <path d="M11.4543 7.63586H10.9087V8.18152H11.4543V7.63586Z" fill="#FCE29E"/>
        <path d="M11.4543 7.09131H10.9087V7.63697H11.4543V7.09131Z" fill="#FFFFF4"/>
        <path d="M11.4543 6.54565H10.9087V7.09131H11.4543V6.54565Z" fill="#07042D"/>
        <path d="M11.4543 6H10.9087V6.54566H11.4543V6Z" fill="#FFC217"/>
        <path d="M11.4543 5.45435H10.9087V6H11.4543V5.45435Z" fill="#FFC217"/>
        <path d="M11.4543 4.90869H10.9087V5.45435H11.4543V4.90869Z" fill="#FFC217"/>
        <path d="M11.4543 4.36304H10.9087V4.90869H11.4543V4.36304Z" fill="#07042D"/>
        <path d="M11.4543 3.81848H10.9087V4.36414H11.4543V3.81848Z" fill="#FFC217"/>
        <path d="M11.4543 3.27283H10.9087V3.81848H11.4543V3.27283Z" fill="#FFC217"/>
        <path d="M11.4543 2.72717H10.9087V3.27283H11.4543V2.72717Z" fill="#07042D"/>
        <path d="M11.4543 2.18152H10.9087V2.72718H11.4543V2.18152Z" fill="#FFC217"/>
        <path d="M11.4543 1.63586H10.9087V2.18152H11.4543V1.63586Z" fill="#FCE29E"/>
        <path d="M11.4543 1.09131H10.9087V1.63697H11.4543V1.09131Z" fill="#07042D"/>
        <path d="M10.9087 13.6359H10.363V14.1815H10.9087V13.6359Z" fill="#07042D"/>
        <path d="M10.9087 13.0902H10.363V13.6359H10.9087V13.0902Z" fill="#D67A16"/>
        <path d="M10.9087 12.5446H10.363V13.0902H10.9087V12.5446Z" fill="#FFC217"/>
        <path d="M10.9087 12H10.363V12.5457H10.9087V12Z" fill="#07042D"/>
        <path d="M10.9087 11.4543H10.363V12H10.9087V11.4543Z" fill="#D67A16"/>
        <path d="M10.9087 10.9087H10.363V11.4543H10.9087V10.9087Z" fill="#FFC217"/>
        <path d="M10.9087 10.363H10.363V10.9087H10.9087V10.363Z" fill="#07042D"/>
        <path d="M10.9087 9.81738H10.363V10.363H10.9087V9.81738Z" fill="#D67A16"/>
        <path d="M10.9087 9.27283H10.363V9.81848H10.9087V9.27283Z" fill="#FFC217"/>
        <path d="M10.9087 8.72717H10.363V9.27283H10.9087V8.72717Z" fill="#FFC217"/>
        <path d="M10.9087 8.18152H10.363V8.72718H10.9087V8.18152Z" fill="#FFC217"/>
        <path d="M10.9087 7.63586H10.363V8.18152H10.9087V7.63586Z" fill="#FFC217"/>
        <path d="M10.9087 7.09131H10.363V7.63697H10.9087V7.09131Z" fill="#FFFFF4"/>
        <path d="M10.9087 6.54565H10.363V7.09131H10.9087V6.54565Z" fill="#07042D"/>
        <path d="M10.9087 6H10.363V6.54566H10.9087V6Z" fill="#07042D"/>
        <path d="M10.9087 5.45435H10.363V6H10.9087V5.45435Z" fill="#07042D"/>
        <path d="M10.9087 4.90869H10.363V5.45435H10.9087V4.90869Z" fill="#07042D"/>
        <path d="M10.9087 4.36304H10.363V4.90869H10.9087V4.36304Z" fill="#07042D"/>
        <path d="M10.9087 3.81848H10.363V4.36414H10.9087V3.81848Z" fill="#07042D"/>
        <path d="M10.9087 3.27283H10.363V3.81848H10.9087V3.27283Z" fill="#07042D"/>
        <path d="M10.9087 2.72717H10.363V3.27283H10.9087V2.72717Z" fill="#07042D"/>
        <path d="M10.9087 2.18152H10.363V2.72718H10.9087V2.18152Z" fill="#07042D"/>
        <path d="M10.9087 1.63586H10.363V2.18152H10.9087V1.63586Z" fill="#07042D"/>
        <path d="M10.363 13.6359H9.81738V14.1815H10.363V13.6359Z" fill="#07042D"/>
        <path d="M10.363 13.0902H9.81738V13.6359H10.363V13.0902Z" fill="#FFC217"/>
        <path d="M10.363 12.5446H9.81738V13.0902H10.363V12.5446Z" fill="#EC9428"/>
        <path d="M10.363 12H9.81738V12.5457H10.363V12Z" fill="#07042D"/>
        <path d="M10.363 11.4543H9.81738V12H10.363V11.4543Z" fill="#FFC217"/>
        <path d="M10.363 10.9087H9.81738V11.4543H10.363V10.9087Z" fill="#EC9428"/>
        <path d="M10.363 10.363H9.81738V10.9087H10.363V10.363Z" fill="#07042D"/>
        <path d="M10.363 9.81738H9.81738V10.363H10.363V9.81738Z" fill="#FFC217"/>
        <path d="M10.363 9.27283H9.81738V9.81848H10.363V9.27283Z" fill="#EC9428"/>
        <path d="M10.363 8.72717H9.81738V9.27283H10.363V8.72717Z" fill="#FFC217"/>
        <path d="M10.363 8.18152H9.81738V8.72718H10.363V8.18152Z" fill="#FFC217"/>
        <path d="M10.363 7.63586H9.81738V8.18152H10.363V7.63586Z" fill="#FFC217"/>
        <path d="M10.363 7.09131H9.81738V7.63697H10.363V7.09131Z" fill="#FCE29E"/>
        <path d="M10.363 6.54565H9.81738V7.09131H10.363V6.54565Z" fill="#07042D"/>
        <path d="M10.363 6H9.81738V6.54566H10.363V6Z" fill="#FFC217"/>
        <path d="M10.363 5.45435H9.81738V6H10.363V5.45435Z" fill="#FCE29E"/>
        <path d="M10.363 4.90869H9.81738V5.45435H10.363V4.90869Z" fill="#07042D"/>
        <path d="M9.81848 13.6359H9.27283V14.1815H9.81848V13.6359Z" fill="#07042D"/>
        <path d="M9.81848 13.0902H9.27283V13.6359H9.81848V13.0902Z" fill="#D67A16"/>
        <path d="M9.81848 12.5446H9.27283V13.0902H9.81848V12.5446Z" fill="#FFC217"/>
        <path d="M9.81848 12H9.27283V12.5457H9.81848V12Z" fill="#07042D"/>
        <path d="M9.81848 11.4543H9.27283V12H9.81848V11.4543Z" fill="#D67A16"/>
        <path d="M9.81848 10.9087H9.27283V11.4543H9.81848V10.9087Z" fill="#FFC217"/>
        <path d="M9.81848 10.363H9.27283V10.9087H9.81848V10.363Z" fill="#07042D"/>
        <path d="M9.81848 9.81738H9.27283V10.363H9.81848V9.81738Z" fill="#D67A16"/>
        <path d="M9.81848 9.27283H9.27283V9.81848H9.81848V9.27283Z" fill="#FFC217"/>
        <path d="M9.81848 8.72717H9.27283V9.27283H9.81848V8.72717Z" fill="#FFC217"/>
        <path d="M9.81848 8.18152H9.27283V8.72718H9.81848V8.18152Z" fill="#FFC217"/>
        <path d="M9.81848 7.63586H9.27283V8.18152H9.81848V7.63586Z" fill="#FFC217"/>
        <path d="M9.81848 7.09131H9.27283V7.63697H9.81848V7.09131Z" fill="#FCE29E"/>
        <path d="M9.81848 6.54565H9.27283V7.09131H9.81848V6.54565Z" fill="#07042D"/>
        <path d="M9.81848 6H9.27283V6.54566H9.81848V6Z" fill="#FFC217"/>
        <path d="M9.81848 5.45435H9.27283V6H9.81848V5.45435Z" fill="#FFC217"/>
        <path d="M9.81848 4.90869H9.27283V5.45435H9.81848V4.90869Z" fill="#FCE29E"/>
        <path d="M9.81848 4.36304H9.27283V4.90869H9.81848V4.36304Z" fill="#07042D"/>
        <path d="M9.27283 13.0902H8.72717V13.6359H9.27283V13.0902Z" fill="#07042D"/>
        <path d="M9.27283 12.5446H8.72717V13.0902H9.27283V12.5446Z" fill="#EC9428"/>
        <path d="M9.27283 12H8.72717V12.5457H9.27283V12Z" fill="#FFC217"/>
        <path d="M9.27283 11.4543H8.72717V12H9.27283V11.4543Z" fill="#07042D"/>
        <path d="M9.27283 10.9087H8.72717V11.4543H9.27283V10.9087Z" fill="#EC9428"/>
        <path d="M9.27283 10.363H8.72717V10.9087H9.27283V10.363Z" fill="#FFC217"/>
        <path d="M9.27283 9.81738H8.72717V10.363H9.27283V9.81738Z" fill="#07042D"/>
        <path d="M9.27283 9.27283H8.72717V9.81848H9.27283V9.27283Z" fill="#EC9428"/>
        <path d="M9.27283 8.72717H8.72717V9.27283H9.27283V8.72717Z" fill="#FFC217"/>
        <path d="M9.27283 8.18152H8.72717V8.72718H9.27283V8.18152Z" fill="#FFC217"/>
        <path d="M9.27283 7.63586H8.72717V8.18152H9.27283V7.63586Z" fill="#FCE29E"/>
        <path d="M9.27283 7.09131H8.72717V7.63697H9.27283V7.09131Z" fill="#07042D"/>
        <path d="M9.27283 6.54565H8.72717V7.09131H9.27283V6.54565Z" fill="#FFC217"/>
        <path d="M9.27283 6H8.72717V6.54566H9.27283V6Z" fill="#FFC217"/>
        <path d="M9.27283 5.45435H8.72717V6H9.27283V5.45435Z" fill="#FFC217"/>
        <path d="M9.27283 4.90869H8.72717V5.45435H9.27283V4.90869Z" fill="#FFC217"/>
        <path d="M9.27283 4.36304H8.72717V4.90869H9.27283V4.36304Z" fill="#FFFFF4"/>
        <path d="M9.27283 3.81848H8.72717V4.36414H9.27283V3.81848Z" fill="#07042D"/>
        <path d="M8.72718 12.5446H8.18152V13.0902H8.72718V12.5446Z" fill="#07042D"/>
        <path d="M8.72718 12H8.18152V12.5457H8.72718V12Z" fill="#D67A16"/>
        <path d="M8.72718 11.4543H8.18152V12H8.72718V11.4543Z" fill="#EC9428"/>
        <path d="M8.72718 10.9087H8.18152V11.4543H8.72718V10.9087Z" fill="#07042D"/>
        <path d="M8.72718 10.363H8.18152V10.9087H8.72718V10.363Z" fill="#D67A16"/>
        <path d="M8.72718 9.81738H8.18152V10.363H8.72718V9.81738Z" fill="#EC9428"/>
        <path d="M8.72718 9.27283H8.18152V9.81848H8.72718V9.27283Z" fill="#07042D"/>
        <path d="M8.72718 8.72717H8.18152V9.27283H8.72718V8.72717Z" fill="#D67A16"/>
        <path d="M8.72718 8.18152H8.18152V8.72718H8.72718V8.18152Z" fill="#EC9428"/>
        <path d="M8.72718 7.63586H8.18152V8.18152H8.72718V7.63586Z" fill="#07042D"/>
        <path d="M8.72718 7.09131H8.18152V7.63697H8.72718V7.09131Z" fill="#EC9428"/>
        <path d="M8.72718 6.54565H8.18152V7.09131H8.72718V6.54565Z" fill="#FFC217"/>
        <path d="M8.72718 6H8.18152V6.54566H8.72718V6Z" fill="#FFC217"/>
        <path d="M8.72718 5.45435H8.18152V6H8.72718V5.45435Z" fill="#FFC217"/>
        <path d="M8.72718 4.90869H8.18152V5.45435H8.72718V4.90869Z" fill="#FFC217"/>
        <path d="M8.72718 4.36304H8.18152V4.90869H8.72718V4.36304Z" fill="#FCE29E"/>
        <path d="M8.72718 3.81848H8.18152V4.36414H8.72718V3.81848Z" fill="#07042D"/>
        <path d="M8.18152 12H7.63586V12.5457H8.18152V12Z" fill="#07042D"/>
        <path d="M8.18152 11.4543H7.63586V12H8.18152V11.4543Z" fill="#07042D"/>
        <path d="M8.18152 10.9087H7.63586V11.4543H8.18152V10.9087Z" fill="#07042D"/>
        <path d="M8.18152 10.363H7.63586V10.9087H8.18152V10.363Z" fill="#07042D"/>
        <path d="M8.18152 9.81738H7.63586V10.363H8.18152V9.81738Z" fill="#07042D"/>
        <path d="M8.18152 9.27283H7.63586V9.81848H8.18152V9.27283Z" fill="#07042D"/>
        <path d="M8.18152 8.72717H7.63586V9.27283H8.18152V8.72717Z" fill="#07042D"/>
        <path d="M8.18152 8.18152H7.63586V8.72718H8.18152V8.18152Z" fill="#07042D"/>
        <path d="M8.18152 7.63586H7.63586V8.18152H8.18152V7.63586Z" fill="#07042D"/>
        <path d="M8.18152 7.09131H7.63586V7.63697H8.18152V7.09131Z" fill="#D67A16"/>
        <path d="M8.18152 6.54565H7.63586V7.09131H8.18152V6.54565Z" fill="#FFC217"/>
        <path d="M8.18152 6H7.63586V6.54566H8.18152V6Z" fill="#FFC217"/>
        <path d="M8.18152 5.45435H7.63586V6H8.18152V5.45435Z" fill="#FFC217"/>
        <path d="M8.18152 4.90869H7.63586V5.45435H8.18152V4.90869Z" fill="#FFC217"/>
        <path d="M8.18152 4.36304H7.63586V4.90869H8.18152V4.36304Z" fill="#FCE29E"/>
        <path d="M8.18152 3.81848H7.63586V4.36414H8.18152V3.81848Z" fill="#07042D"/>
        <path d="M7.63697 12.5446H7.09131V13.0902H7.63697V12.5446Z" fill="#07042D"/>
        <path d="M7.63697 12H7.09131V12.5457H7.63697V12Z" fill="#D67A16"/>
        <path d="M7.63697 11.4543H7.09131V12H7.63697V11.4543Z" fill="#FFC217"/>
        <path d="M7.63697 10.9087H7.09131V11.4543H7.63697V10.9087Z" fill="#07042D"/>
        <path d="M7.63697 10.363H7.09131V10.9087H7.63697V10.363Z" fill="#D67A16"/>
        <path d="M7.63697 9.81738H7.09131V10.363H7.63697V9.81738Z" fill="#FFC217"/>
        <path d="M7.63697 9.27283H7.09131V9.81848H7.63697V9.27283Z" fill="#07042D"/>
        <path d="M7.63697 8.72717H7.09131V9.27283H7.63697V8.72717Z" fill="#D67A16"/>
        <path d="M7.63697 8.18152H7.09131V8.72718H7.63697V8.18152Z" fill="#FFC217"/>
        <path d="M7.63697 7.63586H7.09131V8.18152H7.63697V7.63586Z" fill="#07042D"/>
        <path d="M7.63697 7.09131H7.09131V7.63697H7.63697V7.09131Z" fill="#D67A16"/>
        <path d="M7.63697 6.54565H7.09131V7.09131H7.63697V6.54565Z" fill="#FFC217"/>
        <path d="M7.63697 6H7.09131V6.54566H7.63697V6Z" fill="#FFC217"/>
        <path d="M7.63697 5.45435H7.09131V6H7.63697V5.45435Z" fill="#FFC217"/>
        <path d="M7.63697 4.90869H7.09131V5.45435H7.63697V4.90869Z" fill="#FCE29E"/>
        <path d="M7.63697 4.36304H7.09131V4.90869H7.63697V4.36304Z" fill="#FFFFF4"/>
        <path d="M7.63697 3.81848H7.09131V4.36414H7.63697V3.81848Z" fill="#07042D"/>
        <path d="M7.09131 12.5446H6.54565V13.0902H7.09131V12.5446Z" fill="#07042D"/>
        <path d="M7.09131 12H6.54565V12.5457H7.09131V12Z" fill="#D67A16"/>
        <path d="M7.09131 11.4543H6.54565V12H7.09131V11.4543Z" fill="#EC9428"/>
        <path d="M7.09131 10.9087H6.54565V11.4543H7.09131V10.9087Z" fill="#07042D"/>
        <path d="M7.09131 10.363H6.54565V10.9087H7.09131V10.363Z" fill="#D67A16"/>
        <path d="M7.09131 9.81738H6.54565V10.363H7.09131V9.81738Z" fill="#EC9428"/>
        <path d="M7.09131 9.27283H6.54565V9.81848H7.09131V9.27283Z" fill="#07042D"/>
        <path d="M7.09131 8.72717H6.54565V9.27283H7.09131V8.72717Z" fill="#D67A16"/>
        <path d="M7.09131 8.18152H6.54565V8.72718H7.09131V8.18152Z" fill="#EC9428"/>
        <path d="M7.09131 7.63586H6.54565V8.18152H7.09131V7.63586Z" fill="#07042D"/>
        <path d="M7.09131 7.09131H6.54565V7.63697H7.09131V7.09131Z" fill="#D67A16"/>
        <path d="M7.09131 6.54565H6.54565V7.09131H7.09131V6.54565Z" fill="#EC9428"/>
        <path d="M7.09131 6H6.54565V6.54566H7.09131V6Z" fill="#FFC217"/>
        <path d="M7.09131 5.45435H6.54565V6H7.09131V5.45435Z" fill="#FFC217"/>
        <path d="M7.09131 4.90869H6.54565V5.45435H7.09131V4.90869Z" fill="#FCE29E"/>
        <path d="M7.09131 4.36304H6.54565V4.90869H7.09131V4.36304Z" fill="#FCE29E"/>
        <path d="M7.09131 3.81848H6.54565V4.36414H7.09131V3.81848Z" fill="#07042D"/>
        <path d="M6.54566 12H6V12.5457H6.54566V12Z" fill="#07042D"/>
        <path d="M6.54566 11.4543H6V12H6.54566V11.4543Z" fill="#D67A16"/>
        <path d="M6.54566 10.9087H6V11.4543H6.54566V10.9087Z" fill="#EC9428"/>
        <path d="M6.54566 10.363H6V10.9087H6.54566V10.363Z" fill="#07042D"/>
        <path d="M6.54566 9.81738H6V10.363H6.54566V9.81738Z" fill="#D67A16"/>
        <path d="M6.54566 9.27283H6V9.81848H6.54566V9.27283Z" fill="#EC9428"/>
        <path d="M6.54566 8.72717H6V9.27283H6.54566V8.72717Z" fill="#07042D"/>
        <path d="M6.54566 8.18152H6V8.72718H6.54566V8.18152Z" fill="#D67A16"/>
        <path d="M6.54566 7.63586H6V8.18152H6.54566V7.63586Z" fill="#EC9428"/>
        <path d="M6.54566 7.09131H6V7.63697H6.54566V7.09131Z" fill="#07042D"/>
        <path d="M6.54566 6.54565H6V7.09131H6.54566V6.54565Z" fill="#D67A16"/>
        <path d="M6.54566 6H6V6.54566H6.54566V6Z" fill="#EC9428"/>
        <path d="M6.54566 5.45435H6V6H6.54566V5.45435Z" fill="#FFC217"/>
        <path d="M6.54566 4.90869H6V5.45435H6.54566V4.90869Z" fill="#FFFFF4"/>
        <path d="M6.54566 4.36304H6V4.90869H6.54566V4.36304Z" fill="#07042D"/>
        <path d="M6 12H5.45435V12.5457H6V12Z" fill="#07042D"/>
        <path d="M6 11.4543H5.45435V12H6V11.4543Z" fill="#07042D"/>
        <path d="M6 10.9087H5.45435V11.4543H6V10.9087Z" fill="#07042D"/>
        <path d="M6 10.363H5.45435V10.9087H6V10.363Z" fill="#07042D"/>
        <path d="M6 9.81738H5.45435V10.363H6V9.81738Z" fill="#07042D"/>
        <path d="M6 9.27283H5.45435V9.81848H6V9.27283Z" fill="#D67A16"/>
        <path d="M6 8.72717H5.45435V9.27283H6V8.72717Z" fill="#FFC217"/>
        <path d="M6 8.18152H5.45435V8.72718H6V8.18152Z" fill="#07042D"/>
        <path d="M6 7.63586H5.45435V8.18152H6V7.63586Z" fill="#D67A16"/>
        <path d="M6 7.09131H5.45435V7.63697H6V7.09131Z" fill="#FFC217"/>
        <path d="M6 6.54565H5.45435V7.09131H6V6.54565Z" fill="#07042D"/>
        <path d="M6 6H5.45435V6.54566H6V6Z" fill="#D67A16"/>
        <path d="M6 5.45435H5.45435V6H6V5.45435Z" fill="#FFC217"/>
        <path d="M6 4.90869H5.45435V5.45435H6V4.90869Z" fill="#07042D"/>
        <path d="M5.45435 12.5446H4.90869V13.0902H5.45435V12.5446Z" fill="#07042D"/>
        <path d="M5.45435 12H4.90869V12.5457H5.45435V12Z" fill="#EC9428"/>
        <path d="M5.45435 11.4543H4.90869V12H5.45435V11.4543Z" fill="#FFC217"/>
        <path d="M5.45435 10.9087H4.90869V11.4543H5.45435V10.9087Z" fill="#07042D"/>
        <path d="M5.45435 10.363H4.90869V10.9087H5.45435V10.363Z" fill="#EC9428"/>
        <path d="M5.45435 9.81738H4.90869V10.363H5.45435V9.81738Z" fill="#FFC217"/>
        <path d="M5.45435 9.27283H4.90869V9.81848H5.45435V9.27283Z" fill="#07042D"/>
        <path d="M5.45435 8.72717H4.90869V9.27283H5.45435V8.72717Z" fill="#07042D"/>
        <path d="M5.45435 8.18152H4.90869V8.72718H5.45435V8.18152Z" fill="#07042D"/>
        <path d="M5.45435 7.63586H4.90869V8.18152H5.45435V7.63586Z" fill="#07042D"/>
        <path d="M5.45435 7.09131H4.90869V7.63697H5.45435V7.09131Z" fill="#07042D"/>
        <path d="M5.45435 6.54565H4.90869V7.09131H5.45435V6.54565Z" fill="#07042D"/>
        <path d="M5.45435 6H4.90869V6.54566H5.45435V6Z" fill="#07042D"/>
        <path d="M5.45435 5.45435H4.90869V6H5.45435V5.45435Z" fill="#07042D"/>
        <path d="M4.90869 13.0902H4.36304V13.6359H4.90869V13.0902Z" fill="#07042D"/>
        <path d="M4.90869 12.5446H4.36304V13.0902H4.90869V12.5446Z" fill="#D67A16"/>
        <path d="M4.90869 12H4.36304V12.5457H4.90869V12Z" fill="#FFC217"/>
        <path d="M4.90869 11.4543H4.36304V12H4.90869V11.4543Z" fill="#07042D"/>
        <path d="M4.90869 10.9087H4.36304V11.4543H4.90869V10.9087Z" fill="#D67A16"/>
        <path d="M4.90869 10.363H4.36304V10.9087H4.90869V10.363Z" fill="#FFC217"/>
        <path d="M4.90869 9.81738H4.36304V10.363H4.90869V9.81738Z" fill="#FFC217"/>
        <path d="M4.90869 9.27283H4.36304V9.81848H4.90869V9.27283Z" fill="#FCE29E"/>
        <path d="M4.90869 8.72717H4.36304V9.27283H4.90869V8.72717Z" fill="#07042D"/>
        <path d="M4.36414 13.6359H3.81848V14.1815H4.36414V13.6359Z" fill="#07042D"/>
        <path d="M4.36414 13.0902H3.81848V13.6359H4.36414V13.0902Z" fill="#EC9428"/>
        <path d="M4.36414 12.5446H3.81848V13.0902H4.36414V12.5446Z" fill="#FFC217"/>
        <path d="M4.36414 12H3.81848V12.5457H4.36414V12Z" fill="#07042D"/>
        <path d="M4.36414 11.4543H3.81848V12H4.36414V11.4543Z" fill="#EC9428"/>
        <path d="M4.36414 10.9087H3.81848V11.4543H4.36414V10.9087Z" fill="#FFC217"/>
        <path d="M4.36414 10.363H3.81848V10.9087H4.36414V10.363Z" fill="#FFC217"/>
        <path d="M4.36414 9.81738H3.81848V10.363H4.36414V9.81738Z" fill="#FFC217"/>
        <path d="M4.36414 9.27283H3.81848V9.81848H4.36414V9.27283Z" fill="#FFFFF4"/>
        <path d="M4.36414 8.72717H3.81848V9.27283H4.36414V8.72717Z" fill="#FCE29E"/>
        <path d="M4.36414 8.18152H3.81848V8.72718H4.36414V8.18152Z" fill="#07042D"/>
        <path d="M3.81848 13.6359H3.27283V14.1815H3.81848V13.6359Z" fill="#07042D"/>
        <path d="M3.81848 13.0902H3.27283V13.6359H3.81848V13.0902Z" fill="#EC9428"/>
        <path d="M3.81848 12.5446H3.27283V13.0902H3.81848V12.5446Z" fill="#EC9428"/>
        <path d="M3.81848 12H3.27283V12.5457H3.81848V12Z" fill="#07042D"/>
        <path d="M3.81848 11.4543H3.27283V12H3.81848V11.4543Z" fill="#EC9428"/>
        <path d="M3.81848 10.9087H3.27283V11.4543H3.81848V10.9087Z" fill="#EC9428"/>
        <path d="M3.81848 10.363H3.27283V10.9087H3.81848V10.363Z" fill="#FFC217"/>
        <path d="M3.81848 9.81738H3.27283V10.363H3.81848V9.81738Z" fill="#FFC217"/>
        <path d="M3.81848 9.27283H3.27283V9.81848H3.81848V9.27283Z" fill="#FCE29E"/>
        <path d="M3.81848 8.72717H3.27283V9.27283H3.81848V8.72717Z" fill="#FCE29E"/>
        <path d="M3.81848 8.18152H3.27283V8.72718H3.81848V8.18152Z" fill="#07042D"/>
        <path d="M3.27283 13.6359H2.72717V14.1815H3.27283V13.6359Z" fill="#07042D"/>
        <path d="M3.27283 13.0902H2.72717V13.6359H3.27283V13.0902Z" fill="#D67A16"/>
        <path d="M3.27283 12.5446H2.72717V13.0902H3.27283V12.5446Z" fill="#FFC217"/>
        <path d="M3.27283 12H2.72717V12.5457H3.27283V12Z" fill="#07042D"/>
        <path d="M3.27283 11.4543H2.72717V12H3.27283V11.4543Z" fill="#D67A16"/>
        <path d="M3.27283 10.9087H2.72717V11.4543H3.27283V10.9087Z" fill="#FFC217"/>
        <path d="M3.27283 10.363H2.72717V10.9087H3.27283V10.363Z" fill="#FFC217"/>
        <path d="M3.27283 9.81738H2.72717V10.363H3.27283V9.81738Z" fill="#FFC217"/>
        <path d="M3.27283 9.27283H2.72717V9.81848H3.27283V9.27283Z" fill="#FFC217"/>
        <path d="M3.27283 8.72717H2.72717V9.27283H3.27283V8.72717Z" fill="#FFFFF4"/>
        <path d="M3.27283 8.18152H2.72717V8.72718H3.27283V8.18152Z" fill="#07042D"/>
        <path d="M2.72718 13.6359H2.18152V14.1815H2.72718V13.6359Z" fill="#07042D"/>
        <path d="M2.72718 13.0902H2.18152V13.6359H2.72718V13.0902Z" fill="#EC9428"/>
        <path d="M2.72718 12.5446H2.18152V13.0902H2.72718V12.5446Z" fill="#FFC217"/>
        <path d="M2.72718 12H2.18152V12.5457H2.72718V12Z" fill="#07042D"/>
        <path d="M2.72718 11.4543H2.18152V12H2.72718V11.4543Z" fill="#EC9428"/>
        <path d="M2.72718 10.9087H2.18152V11.4543H2.72718V10.9087Z" fill="#FFC217"/>
        <path d="M2.72718 10.363H2.18152V10.9087H2.72718V10.363Z" fill="#FFC217"/>
        <path d="M2.72718 9.81738H2.18152V10.363H2.72718V9.81738Z" fill="#FFC217"/>
        <path d="M2.72718 9.27283H2.18152V9.81848H2.72718V9.27283Z" fill="#FFC217"/>
        <path d="M2.72718 8.72717H2.18152V9.27283H2.72718V8.72717Z" fill="#FFFFF4"/>
        <path d="M2.72718 8.18152H2.18152V8.72718H2.72718V8.18152Z" fill="#07042D"/>
        <path d="M2.18152 13.6359H1.63586V14.1815H2.18152V13.6359Z" fill="#07042D"/>
        <path d="M2.18152 13.0902H1.63586V13.6359H2.18152V13.0902Z" fill="#D67A16"/>
        <path d="M2.18152 12.5446H1.63586V13.0902H2.18152V12.5446Z" fill="#FFC217"/>
        <path d="M2.18152 12H1.63586V12.5457H2.18152V12Z" fill="#07042D"/>
        <path d="M2.18152 11.4543H1.63586V12H2.18152V11.4543Z" fill="#D67A16"/>
        <path d="M2.18152 10.9087H1.63586V11.4543H2.18152V10.9087Z" fill="#FFC217"/>
        <path d="M2.18152 10.363H1.63586V10.9087H2.18152V10.363Z" fill="#FFC217"/>
        <path d="M2.18152 9.81738H1.63586V10.363H2.18152V9.81738Z" fill="#FFC217"/>
        <path d="M2.18152 9.27283H1.63586V9.81848H2.18152V9.27283Z" fill="#FFC217"/>
        <path d="M2.18152 8.72717H1.63586V9.27283H2.18152V8.72717Z" fill="#FCE29E"/>
        <path d="M2.18152 8.18152H1.63586V8.72718H2.18152V8.18152Z" fill="#07042D"/>
        <path d="M1.63697 13.0902H1.09131V13.6359H1.63697V13.0902Z" fill="#07042D"/>
        <path d="M1.63697 12.5446H1.09131V13.0902H1.63697V12.5446Z" fill="#D67A16"/>
        <path d="M1.63697 12H1.09131V12.5457H1.63697V12Z" fill="#FFC217"/>
        <path d="M1.63697 11.4543H1.09131V12H1.63697V11.4543Z" fill="#07042D"/>
        <path d="M1.63697 10.9087H1.09131V11.4543H1.63697V10.9087Z" fill="#D67A16"/>
        <path d="M1.63697 10.363H1.09131V10.9087H1.63697V10.363Z" fill="#FFC217"/>
        <path d="M1.63697 9.81738H1.09131V10.363H1.63697V9.81738Z" fill="#FFC217"/>
        <path d="M1.63697 9.27283H1.09131V9.81848H1.63697V9.27283Z" fill="#FFFFF4"/>
        <path d="M1.63697 8.72717H1.09131V9.27283H1.63697V8.72717Z" fill="#07042D"/>
        <path d="M1.09131 12.5446H0.545654V13.0902H1.09131V12.5446Z" fill="#07042D"/>
        <path d="M1.09131 12H0.545654V12.5457H1.09131V12Z" fill="#FFC217"/>
        <path d="M1.09131 11.4543H0.545654V12H1.09131V11.4543Z" fill="#EC9428"/>
        <path d="M1.09131 10.9087H0.545654V11.4543H1.09131V10.9087Z" fill="#07042D"/>
        <path d="M1.09131 10.363H0.545654V10.9087H1.09131V10.363Z" fill="#EC9428"/>
        <path d="M1.09131 9.81738H0.545654V10.363H1.09131V9.81738Z" fill="#FCE29E"/>
        <path d="M1.09131 9.27283H0.545654V9.81848H1.09131V9.27283Z" fill="#07042D"/>
        <path d="M0.545658 12H0V12.5457H0.545658V12Z" fill="#07042D"/>
        <path d="M0.545658 11.4543H0V12H0.545658V11.4543Z" fill="#07042D"/>
        <path d="M0.545658 10.9087H0V11.4543H0.545658V10.9087Z" fill="#07042D"/>
        <path d="M0.545658 10.363H0V10.9087H0.545658V10.363Z" fill="#07042D"/>
        <path d="M0.545658 9.81738H0V10.363H0.545658V9.81738Z" fill="#07042D"/>
    </g>
    <defs>
        <clipPath id="clip0_2237_55643">
            <rect width="18" height="16.363" fill="white"/>
        </clipPath>
    </defs>
</svg>
