<svg width="" height="" viewBox="0 0 16 15" fill="none" xmlns="http://www.w3.org/2000/svg">
    <path d="M15.7988 6.57239H14.7588V7.60096H15.7988V6.57239Z" fill="#13073D"/>
    <path d="M15.7988 5.54395H14.7588V6.57252H15.7988V5.54395Z" fill="#13073D"/>
    <path d="M15.7988 4.51404H14.7588V5.54261H15.7988V4.51404Z" fill="#13073D"/>
    <path d="M15.7988 3.4856H14.7588V4.51417H15.7988V3.4856Z" fill="#13073D"/>
    <path d="M14.7587 7.60034H13.7188V8.62891H14.7587V7.60034Z" fill="#13073D"/>
    <path d="M14.7587 6.57239H13.7188V7.60096H14.7587V6.57239Z" fill="#8FCCFF"/>
    <path d="M14.7587 5.54395H13.7188V6.57252H14.7587V5.54395Z" fill="#1B69DB"/>
    <path d="M14.7587 4.51404H13.7188V5.54261H14.7587V4.51404Z" fill="#1B69DB"/>
    <path d="M14.7587 3.4856H13.7188V4.51417H14.7587V3.4856Z" fill="#1B69DB"/>
    <path d="M14.7587 2.45776H13.7188V3.48634H14.7587V2.45776Z" fill="#13073D"/>
    <path d="M13.7187 8.6283H12.6787V9.65687H13.7187V8.6283Z" fill="#13073D"/>
    <path d="M13.7187 7.60034H12.6787V8.62891H13.7187V7.60034Z" fill="#1B69DB"/>
    <path d="M13.7187 6.57239H12.6787V7.60096H13.7187V6.57239Z" fill="#8FCCFF"/>
    <path d="M13.7187 5.54395H12.6787V6.57252H13.7187V5.54395Z" fill="#1B69DB"/>
    <path d="M13.7187 4.51404H12.6787V5.54261H13.7187V4.51404Z" fill="#1B69DB"/>
    <path d="M13.7187 3.4856H12.6787V4.51417H13.7187V3.4856Z" fill="#1B69DB"/>
    <path d="M13.7187 2.45776H12.6787V3.48634H13.7187V2.45776Z" fill="#1B69DB"/>
    <path d="M13.7187 1.42932H12.6787V2.45789H13.7187V1.42932Z" fill="#13073D"/>
    <path d="M12.6787 9.65662H11.6387V10.6852H12.6787V9.65662Z" fill="#13073D"/>
    <path d="M12.6787 8.6283H11.6387V9.65687H12.6787V8.6283Z" fill="#1B69DB"/>
    <path d="M12.6787 7.60034H11.6387V8.62891H12.6787V7.60034Z" fill="#1B69DB"/>
    <path d="M12.6787 6.57239H11.6387V7.60096H12.6787V6.57239Z" fill="#8FCCFF"/>
    <path d="M12.6787 5.54395H11.6387V6.57252H12.6787V5.54395Z" fill="#1B69DB"/>
    <path d="M12.6787 4.51404H11.6387V5.54261H12.6787V4.51404Z" fill="#CFECFF"/>
    <path d="M12.6787 3.4856H11.6387V4.51417H12.6787V3.4856Z" fill="#1B69DB"/>
    <path d="M12.6787 2.45776H11.6387V3.48634H12.6787V2.45776Z" fill="#1B69DB"/>
    <path d="M12.6787 1.42932H11.6387V2.45789H12.6787V1.42932Z" fill="#1B69DB"/>
    <path d="M12.6787 0.399414H11.6387V1.42799H12.6787V0.399414Z" fill="#13073D"/>
    <path d="M11.6386 10.6866H10.5986V11.7152H11.6386V10.6866Z" fill="#13073D"/>
    <path d="M11.6386 9.65662H10.5986V10.6852H11.6386V9.65662Z" fill="#1B69DB"/>
    <path d="M11.6386 8.6283H10.5986V9.65687H11.6386V8.6283Z" fill="#1B69DB"/>
    <path d="M11.6386 7.60034H10.5986V8.62891H11.6386V7.60034Z" fill="#1B69DB"/>
    <path d="M11.6386 6.57239H10.5986V7.60096H11.6386V6.57239Z" fill="#8FCCFF"/>
    <path d="M11.6386 5.54395H10.5986V6.57252H11.6386V5.54395Z" fill="#1B69DB"/>
    <path d="M11.6386 4.51404H10.5986V5.54261H11.6386V4.51404Z" fill="#1B69DB"/>
    <path d="M11.6386 3.4856H10.5986V4.51417H11.6386V3.4856Z" fill="#1B69DB"/>
    <path d="M11.6386 2.45776H10.5986V3.48634H11.6386V2.45776Z" fill="#1B69DB"/>
    <path d="M11.6386 1.42932H10.5986V2.45789H11.6386V1.42932Z" fill="#1B69DB"/>
    <path d="M11.6386 0.399414H10.5986V1.42799H11.6386V0.399414Z" fill="#13073D"/>
    <path d="M10.5986 11.715H9.55859V12.7435H10.5986V11.715Z" fill="#13073D"/>
    <path d="M10.5986 10.6866H9.55859V11.7152H10.5986V10.6866Z" fill="#1B69DB"/>
    <path d="M10.5986 9.65662H9.55859V10.6852H10.5986V9.65662Z" fill="#1B69DB"/>
    <path d="M10.5986 8.6283H9.55859V9.65687H10.5986V8.6283Z" fill="#CFECFF"/>
    <path d="M10.5986 7.60034H9.55859V8.62891H10.5986V7.60034Z" fill="#43A1FF"/>
    <path d="M10.5986 6.57239H9.55859V7.60096H10.5986V6.57239Z" fill="#8FCCFF"/>
    <path d="M10.5986 5.54395H9.55859V6.57252H10.5986V5.54395Z" fill="#43A1FF"/>
    <path d="M10.5986 4.51404H9.55859V5.54261H10.5986V4.51404Z" fill="#43A1FF"/>
    <path d="M10.5986 3.4856H9.55859V4.51417H10.5986V3.4856Z" fill="#43A1FF"/>
    <path d="M10.5986 2.45776H9.55859V3.48634H10.5986V2.45776Z" fill="#1B69DB"/>
    <path d="M10.5986 1.42932H9.55859V2.45789H10.5986V1.42932Z" fill="#CFECFF"/>
    <path d="M10.5986 0.399414H9.55859V1.42799H10.5986V0.399414Z" fill="#13073D"/>
    <path d="M9.55856 12.7429H8.51855V13.7715H9.55856V12.7429Z" fill="#13073D"/>
    <path d="M9.55856 11.715H8.51855V12.7435H9.55856V11.715Z" fill="#43A1FF"/>
    <path d="M9.55856 10.6866H8.51855V11.7152H9.55856V10.6866Z" fill="#43A1FF"/>
    <path d="M9.55856 9.65662H8.51855V10.6852H9.55856V9.65662Z" fill="#43A1FF"/>
    <path d="M9.55856 8.6283H8.51855V9.65687H9.55856V8.6283Z" fill="#43A1FF"/>
    <path d="M9.55856 7.60034H8.51855V8.62891H9.55856V7.60034Z" fill="#43A1FF"/>
    <path d="M9.55856 6.57239H8.51855V7.60096H9.55856V6.57239Z" fill="#8FCCFF"/>
    <path d="M9.55856 5.54395H8.51855V6.57252H9.55856V5.54395Z" fill="#43A1FF"/>
    <path d="M9.55856 4.51404H8.51855V5.54261H9.55856V4.51404Z" fill="#43A1FF"/>
    <path d="M9.55856 3.4856H8.51855V4.51417H9.55856V3.4856Z" fill="#43A1FF"/>
    <path d="M9.55856 2.45776H8.51855V3.48634H9.55856V2.45776Z" fill="#43A1FF"/>
    <path d="M9.55856 1.42932H8.51855V2.45789H9.55856V1.42932Z" fill="#43A1FF"/>
    <path d="M9.55856 0.399414H8.51855V1.42799H9.55856V0.399414Z" fill="#13073D"/>
    <path d="M8.52108 13.7714H7.48108V14.7999H8.52108V13.7714Z" fill="#13073D"/>
    <path d="M8.52108 12.7429H7.48108V13.7715H8.52108V12.7429Z" fill="#43A1FF"/>
    <path d="M8.52108 11.715H7.48108V12.7435H8.52108V11.715Z" fill="#43A1FF"/>
    <path d="M8.52108 10.6866H7.48108V11.7152H8.52108V10.6866Z" fill="#43A1FF"/>
    <path d="M8.52108 9.65662H7.48108V10.6852H8.52108V9.65662Z" fill="#43A1FF"/>
    <path d="M8.52108 8.6283H7.48108V9.65687H8.52108V8.6283Z" fill="#43A1FF"/>
    <path d="M8.52108 7.60034H7.48108V8.62891H8.52108V7.60034Z" fill="#43A1FF"/>
    <path d="M8.52108 6.57239H7.48108V7.60096H8.52108V6.57239Z" fill="#8FCCFF"/>
    <path d="M8.52108 5.54395H7.48108V6.57252H8.52108V5.54395Z" fill="#43A1FF"/>
    <path d="M8.52108 4.51404H7.48108V5.54261H8.52108V4.51404Z" fill="#43A1FF"/>
    <path d="M8.52108 3.4856H7.48108V4.51417H8.52108V3.4856Z" fill="#43A1FF"/>
    <path d="M8.52108 2.45776H7.48108V3.48634H8.52108V2.45776Z" fill="#43A1FF"/>
    <path d="M8.52108 1.42932H7.48108V2.45789H8.52108V1.42932Z" fill="#43A1FF"/>
    <path d="M8.52108 0.399414H7.48108V1.42799H8.52108V0.399414Z" fill="#13073D"/>
    <path d="M7.48104 12.7429H6.44104V13.7715H7.48104V12.7429Z" fill="#13073D"/>
    <path d="M7.48104 11.715H6.44104V12.7435H7.48104V11.715Z" fill="#8FCCFF"/>
    <path d="M7.48104 10.6866H6.44104V11.7152H7.48104V10.6866Z" fill="#43A1FF"/>
    <path d="M7.48104 9.65662H6.44104V10.6852H7.48104V9.65662Z" fill="#CFECFF"/>
    <path d="M7.48104 8.6283H6.44104V9.65687H7.48104V8.6283Z" fill="#43A1FF"/>
    <path d="M7.48104 7.60034H6.44104V8.62891H7.48104V7.60034Z" fill="#43A1FF"/>
    <path d="M7.48104 6.57239H6.44104V7.60096H7.48104V6.57239Z" fill="#8FCCFF"/>
    <path d="M7.48104 5.54395H6.44104V6.57252H7.48104V5.54395Z" fill="#43A1FF"/>
    <path d="M7.48104 4.51404H6.44104V5.54261H7.48104V4.51404Z" fill="#43A1FF"/>
    <path d="M7.48104 3.4856H6.44104V4.51417H7.48104V3.4856Z" fill="#43A1FF"/>
    <path d="M7.48104 2.45776H6.44104V3.48634H7.48104V2.45776Z" fill="#43A1FF"/>
    <path d="M7.48104 1.42932H6.44104V2.45789H7.48104V1.42932Z" fill="#43A1FF"/>
    <path d="M7.48104 0.399414H6.44104V1.42799H7.48104V0.399414Z" fill="#13073D"/>
    <path d="M6.441 11.715H5.401V12.7435H6.441V11.715Z" fill="#13073D"/>
    <path d="M6.441 10.6866H5.401V11.7152H6.441V10.6866Z" fill="#8FCCFF"/>
    <path d="M6.441 9.65662H5.401V10.6852H6.441V9.65662Z" fill="#8FCCFF"/>
    <path d="M6.441 8.6283H5.401V9.65687H6.441V8.6283Z" fill="#CFECFF"/>
    <path d="M6.441 7.60034H5.401V8.62891H6.441V7.60034Z" fill="#43A1FF"/>
    <path d="M6.441 6.57239H5.401V7.60096H6.441V6.57239Z" fill="#8FCCFF"/>
    <path d="M6.441 5.54395H5.401V6.57252H6.441V5.54395Z" fill="#43A1FF"/>
    <path d="M6.441 4.51404H5.401V5.54261H6.441V4.51404Z" fill="#43A1FF"/>
    <path d="M6.441 3.4856H5.401V4.51417H6.441V3.4856Z" fill="#43A1FF"/>
    <path d="M6.441 2.45776H5.401V3.48634H6.441V2.45776Z" fill="#8FCCFF"/>
    <path d="M6.441 1.42932H5.401V2.45789H6.441V1.42932Z" fill="#CFECFF"/>
    <path d="M6.441 0.399414H5.401V1.42799H6.441V0.399414Z" fill="#13073D"/>
    <path d="M5.40096 10.6866H4.36096V11.7152H5.40096V10.6866Z" fill="#13073D"/>
    <path d="M5.40096 9.65662H4.36096V10.6852H5.40096V9.65662Z" fill="#8FCCFF"/>
    <path d="M5.40096 8.6283H4.36096V9.65687H5.40096V8.6283Z" fill="#8FCCFF"/>
    <path d="M5.40096 7.60034H4.36096V8.62891H5.40096V7.60034Z" fill="#8FCCFF"/>
    <path d="M5.40096 6.57239H4.36096V7.60096H5.40096V6.57239Z" fill="#CFECFF"/>
    <path d="M5.40096 5.54395H4.36096V6.57252H5.40096V5.54395Z" fill="#8FCCFF"/>
    <path d="M5.40096 4.51404H4.36096V5.54261H5.40096V4.51404Z" fill="#CFECFF"/>
    <path d="M5.40096 3.4856H4.36096V4.51417H5.40096V3.4856Z" fill="#8FCCFF"/>
    <path d="M5.40096 2.45776H4.36096V3.48634H5.40096V2.45776Z" fill="#8FCCFF"/>
    <path d="M5.40096 1.42932H4.36096V2.45789H5.40096V1.42932Z" fill="#8FCCFF"/>
    <path d="M5.40096 0.399414H4.36096V1.42799H5.40096V0.399414Z" fill="#13073D"/>
    <path d="M4.36092 9.65662H3.32092V10.6852H4.36092V9.65662Z" fill="#13073D"/>
    <path d="M4.36092 8.6283H3.32092V9.65687H4.36092V8.6283Z" fill="#8FCCFF"/>
    <path d="M4.36092 7.60034H3.32092V8.62891H4.36092V7.60034Z" fill="#8FCCFF"/>
    <path d="M4.36092 6.57239H3.32092V7.60096H4.36092V6.57239Z" fill="#CFECFF"/>
    <path d="M4.36092 5.54395H3.32092V6.57252H4.36092V5.54395Z" fill="#8FCCFF"/>
    <path d="M4.36092 4.51404H3.32092V5.54261H4.36092V4.51404Z" fill="#8FCCFF"/>
    <path d="M4.36092 3.4856H3.32092V4.51417H4.36092V3.4856Z" fill="#8FCCFF"/>
    <path d="M4.36092 2.45776H3.32092V3.48634H4.36092V2.45776Z" fill="#8FCCFF"/>
    <path d="M4.36092 1.42932H3.32092V2.45789H4.36092V1.42932Z" fill="#CFECFF"/>
    <path d="M4.36092 0.399414H3.32092V1.42799H4.36092V0.399414Z" fill="#13073D"/>
    <path d="M3.32088 8.6283H2.28088V9.65687H3.32088V8.6283Z" fill="#13073D"/>
    <path d="M3.32088 7.60034H2.28088V8.62891H3.32088V7.60034Z" fill="#8FCCFF"/>
    <path d="M3.32088 6.57239H2.28088V7.60096H3.32088V6.57239Z" fill="#CFECFF"/>
    <path d="M3.32088 5.54395H2.28088V6.57252H3.32088V5.54395Z" fill="#8FCCFF"/>
    <path d="M3.32088 4.51404H2.28088V5.54261H3.32088V4.51404Z" fill="#8FCCFF"/>
    <path d="M3.32088 3.4856H2.28088V4.51417H3.32088V3.4856Z" fill="#CFECFF"/>
    <path d="M3.32088 2.45776H2.28088V3.48634H3.32088V2.45776Z" fill="#8FCCFF"/>
    <path d="M3.32088 1.42932H2.28088V2.45789H3.32088V1.42932Z" fill="#13073D"/>
    <path d="M2.28084 7.60034H1.24084V8.62891H2.28084V7.60034Z" fill="#13073D"/>
    <path d="M2.28084 6.57239H1.24084V7.60096H2.28084V6.57239Z" fill="#CFECFF"/>
    <path d="M2.28084 5.54395H1.24084V6.57252H2.28084V5.54395Z" fill="#8FCCFF"/>
    <path d="M2.28084 4.51404H1.24084V5.54261H2.28084V4.51404Z" fill="#8FCCFF"/>
    <path d="M2.28084 3.4856H1.24084V4.51417H2.28084V3.4856Z" fill="#8FCCFF"/>
    <path d="M2.28084 2.45776H1.24084V3.48634H2.28084V2.45776Z" fill="#13073D"/>
    <path d="M1.24081 6.57239H0.200806V7.60096H1.24081V6.57239Z" fill="#13073D"/>
    <path d="M1.24081 5.54395H0.200806V6.57252H1.24081V5.54395Z" fill="#13073D"/>
    <path d="M1.24081 4.51404H0.200806V5.54261H1.24081V4.51404Z" fill="#13073D"/>
    <path d="M1.24081 3.4856H0.200806V4.51417H1.24081V3.4856Z" fill="#13073D"/>
</svg>
